<svg xmlns="http://www.w3.org/2000/svg" xmlns:svg="http://www.w3.org/2000/svg" id="svg2465" width="582.226" height="450.906" version="1.1" viewBox="0 0 154.047 119.302"><metadata id="metadata2462"/><g id="layer1" transform="translate(-6.6317379,-3.7553281)"><rect style="fill:none;fill-opacity:0;stroke:red;stroke-width:.1;stroke-miterlimit:4;stroke-dasharray:none;stroke-opacity:1" id="rect6182" width="27.796" height="37.15" x="38.487" y="23.049" ry="2.138"/><rect style="fill:none;fill-opacity:0;stroke:red;stroke-width:.1;stroke-miterlimit:4;stroke-dasharray:none;stroke-opacity:1" id="rect6184" width="13.497" height="9.087" x="80.181" y="43.628" ry="2.138"/><rect style="fill:none;fill-opacity:0;stroke:red;stroke-width:.1;stroke-miterlimit:4;stroke-dasharray:none;stroke-opacity:1" id="rect6186" width="8.152" height="10.424" x="70.559" y="37.08" ry="2.138"/><rect style="fill:none;fill-opacity:0;stroke:red;stroke-width:.1;stroke-miterlimit:4;stroke-dasharray:none;stroke-opacity:1" id="rect6188" width="7.617" height="11.359" x="25.925" y="36.679" ry="2.138"/><rect style="fill:none;fill-opacity:0;stroke:red;stroke-width:.1;stroke-miterlimit:4;stroke-dasharray:none;stroke-opacity:1" id="rect6190" width="6.949" height="10.958" x="101.83" y="37.08" ry="2.138"/><path style="fill:none;stroke:#fa0000;stroke-width:.1;stroke-linecap:butt;stroke-linejoin:miter;stroke-miterlimit:4;stroke-dasharray:none;stroke-opacity:1" id="path6192" d="m 109.68908,39.009735 8.71967,-0.0084 -0.008,-0.517837 4.40309,0.0013 -0.0266,-3.04152 8.0849,0.03341 -0.002,1.307618 3.32267,0.02622 -0.0383,1.670137 5.77171,-0.03061 0.23386,7.984678 -5.44561,-0.133633 -0.10023,-5.91334 -2.66527,0.04951 0.009,5.712126 1.14329,0.02195 -0.0234,3.704485 -10.89124,0.06682 -0.0585,-2.455539 -3.2657,0.02506 -0.0167,-1.177655 -9.57463,0.01569 -0.0136,-7.332193 z"/><rect style="fill:none;fill-opacity:0;stroke:#fa0000;stroke-width:.1;stroke-miterlimit:4;stroke-dasharray:none;stroke-opacity:1" id="rect6194" width="16.442" height="15.119" x="76.54" y="88.735" ry="2.138"/><rect style="fill:none;fill-opacity:0;stroke:#fa0000;stroke-width:.1;stroke-miterlimit:4;stroke-dasharray:none;stroke-opacity:1" id="rect6196" width="13.418" height="13.607" x="125.299" y="89.491" ry="2.138"/><rect style="fill:none;fill-opacity:0;stroke:#fa0000;stroke-width:.1;stroke-miterlimit:4;stroke-dasharray:none;stroke-opacity:1" id="rect6198" width="19.844" height="15.119" x="24.946" y="88.735" ry="2.138"/><path style="fill:none;fill-opacity:0;stroke:#fa0000;stroke-width:.1;stroke-miterlimit:4;stroke-dasharray:none;stroke-opacity:1" id="path6202-3" d="m -57.668553,122.37361 c 0.365291,0.39491 0.876983,0.62532 1.738525,0.61524 l 42.566552,0.0187 c 3.701681,0.004 6.6817381,-2.98006 6.6817381,-6.68174 V 10.487067 c 0,-3.7016836 -2.9800553,-6.6817389 -6.6817381,-6.6817389 H -153.94723 c -3.70169,0 -6.68174,2.9800553 -6.68174,6.6817389 V 116.3258 c 0,3.70168 2.98005,6.68176 6.68174,6.68174 l 42.78149,-2.8e-4 c 0.65307,-0.0131 1.16476,-0.24354 1.53005,-0.63845 0.36529,-0.39491 0.5527,-0.92027 0.52098,-1.58166 l 0.002,-2.18957 c 0,-1.18454 0.95362,-2.13815 2.13815,-2.13815 h 46.638542 c 1.184536,0 2.14004,0.95361 2.138151,2.13815 l -0.0032,1.99569 c -0.02013,0.86007 0.167274,1.38543 0.532566,1.78034 z" transform="scale(-1,1)"/></g></svg>