<svg xmlns="http://www.w3.org/2000/svg" xmlns:svg="http://www.w3.org/2000/svg" id="svg1038" width="338.473" height="228.003" version="1.1" viewBox="0 0 35257.612 23750.333"><metadata id="metadata1044"/><title id="title2">SVG Picture created as Python-Edge_Cuts.svg date 2020/06/14 09:49:41</title><desc id="desc4">Picture generated by PCBNEW</desc><g style="fill:none;fill-opacity:0;stroke:#ff0200;stroke-width:39.37009811;stroke-linecap:round;stroke-linejoin:round;stroke-opacity:1" id="g4753" transform="matrix(1.0010323,0,0,1.0006877,-52370.597,-26184.071)"><path id="path4257" d="m 61234,31589 -155,3" style="fill:none;stroke:#ff0200;stroke-opacity:1"/><path id="path4259" d="m 61079,31592 -151,12" style="fill:none;stroke:#ff0200;stroke-opacity:1"/><path id="path4261" d="m 60928,31604 -146,20" style="fill:none;stroke:#ff0200;stroke-opacity:1"/><path id="path4263" d="m 60782,31624 -141,27" style="fill:none;stroke:#ff0200;stroke-opacity:1"/><path id="path4265" d="m 60641,31651 -136,34" style="fill:none;stroke:#ff0200;stroke-opacity:1"/><path id="path4267" d="m 60505,31685 -130,42" style="fill:none;stroke:#ff0200;stroke-opacity:1"/><path id="path4269" d="m 60375,31727 -125,50" style="fill:none;stroke:#ff0200;stroke-opacity:1"/><path id="path4271" d="m 60250,31777 -119,56" style="fill:none;stroke:#ff0200;stroke-opacity:1"/><path id="path4273" d="m 60131,31833 -112,63" style="fill:none;stroke:#ff0200;stroke-opacity:1"/><path id="path4275" d="m 60019,31896 -107,71" style="fill:none;stroke:#ff0200;stroke-opacity:1"/><path id="path4277" d="m 59912,31967 -100,77" style="fill:none;stroke:#ff0200;stroke-opacity:1"/><path id="path4279" d="m 59812,32044 -93,84" style="fill:none;stroke:#ff0200;stroke-opacity:1"/><path id="path4281" d="m 59719,32128 -86,90" style="fill:none;stroke:#ff0200;stroke-opacity:1"/><path id="path4283" d="m 59633,32218 -79,97" style="fill:none;stroke:#ff0200;stroke-opacity:1"/><path id="path4285" d="m 59554,32315 -71,103" style="fill:none;stroke:#ff0200;stroke-opacity:1"/><path id="path4287" d="m 59483,32418 -64,109" style="fill:none;stroke:#ff0200;stroke-opacity:1"/><path id="path4289" d="m 59419,32527 -51,105" style="fill:none;stroke:#ff0200;stroke-opacity:1"/><path id="path4291" d="m 59368,32632 -42,106" style="fill:none;stroke:#ff0200;stroke-opacity:1"/><path id="path4293" d="m 59326,32738 -32,122" style="fill:none;stroke:#ff0200;stroke-opacity:1"/><path id="path4295" d="m 59294,32860 -25,151" style="fill:none;stroke:#ff0200;stroke-opacity:1"/><path id="path4297" d="m 59269,33011 -20,193" style="fill:none;stroke:#ff0200;stroke-opacity:1"/><path id="path4299" d="m 59249,33204 -16,249" style="fill:none;stroke:#ff0200;stroke-opacity:1"/><path id="path4301" d="m 59233,33453 -29,722" style="fill:none;stroke:#ff0200;stroke-opacity:1"/><path id="path4303" d="m 59204,34175 -20,517" style="fill:none;stroke:#ff0200;stroke-opacity:1"/><path id="path4305" d="m 59184,34692 -25,403" style="fill:none;stroke:#ff0200;stroke-opacity:1"/><path id="path4307" d="m 59159,35095 -18,168" style="fill:none;stroke:#ff0200;stroke-opacity:1"/><path id="path4309" d="m 59141,35263 -24,151" style="fill:none;stroke:#ff0200;stroke-opacity:1"/><path id="path4311" d="m 59117,35414 -29,137" style="fill:none;stroke:#ff0200;stroke-opacity:1"/><path id="path4313" d="m 59088,35551 -38,126" style="fill:none;stroke:#ff0200;stroke-opacity:1"/><path id="path4315" d="m 59050,35677 -46,120" style="fill:none;stroke:#ff0200;stroke-opacity:1"/><path id="path4317" d="m 59004,35797 -57,118" style="fill:none;stroke:#ff0200;stroke-opacity:1"/><path id="path4319" d="m 58947,35915 -68,117" style="fill:none;stroke:#ff0200;stroke-opacity:1"/><path id="path4321" d="m 58879,36032 -81,123" style="fill:none;stroke:#ff0200;stroke-opacity:1"/><path id="path4323" d="m 58798,36155 -204,272" style="fill:none;stroke:#ff0200;stroke-opacity:1"/><path id="path4325" d="m 58594,36427 -270,333" style="fill:none;stroke:#ff0200;stroke-opacity:1"/><path id="path4327" d="m 58324,36760 -159,200" style="fill:none;stroke:#ff0200;stroke-opacity:1"/><path id="path4329" d="m 58165,36960 -149,197" style="fill:none;stroke:#ff0200;stroke-opacity:1"/><path id="path4331" d="m 58016,37157 -140,195" style="fill:none;stroke:#ff0200;stroke-opacity:1"/><path id="path4333" d="m 57876,37352 -131,192" style="fill:none;stroke:#ff0200;stroke-opacity:1"/><path id="path4335" d="m 57745,37544 -120,190" style="fill:none;stroke:#ff0200;stroke-opacity:1"/><path id="path4337" d="m 57625,37734 -111,186" style="fill:none;stroke:#ff0200;stroke-opacity:1"/><path id="path4339" d="m 57514,37920 -100,184" style="fill:none;stroke:#ff0200;stroke-opacity:1"/><path id="path4341" d="m 57414,38104 -90,180" style="fill:none;stroke:#ff0200;stroke-opacity:1"/><path id="path4343" d="m 57324,38284 -81,176" style="fill:none;stroke:#ff0200;stroke-opacity:1"/><path id="path4345" d="m 57243,38460 -69,173" style="fill:none;stroke:#ff0200;stroke-opacity:1"/><path id="path4347" d="m 57174,38633 -60,169" style="fill:none;stroke:#ff0200;stroke-opacity:1"/><path id="path4349" d="m 57114,38802 -49,164" style="fill:none;stroke:#ff0200;stroke-opacity:1"/><path id="path4351" d="m 57065,38966 -38,160" style="fill:none;stroke:#ff0200;stroke-opacity:1"/><path id="path4353" d="m 57027,39126 -28,156" style="fill:none;stroke:#ff0200;stroke-opacity:1"/><path id="path4355" d="m 56999,39282 -16,151" style="fill:none;stroke:#ff0200;stroke-opacity:1"/><path id="path4357" d="m 56983,39433 -6,145" style="fill:none;stroke:#ff0200;stroke-opacity:1"/><path id="path4359" d="m 56977,39578 -5,88" style="fill:none;stroke:#ff0200;stroke-opacity:1"/><path id="path4361" d="m 56972,39666 -13,86" style="fill:none;stroke:#ff0200;stroke-opacity:1"/><path id="path4363" d="m 56959,39752 -21,86" style="fill:none;stroke:#ff0200;stroke-opacity:1"/><path id="path4365" d="m 56938,39838 -29,84" style="fill:none;stroke:#ff0200;stroke-opacity:1"/><path id="path4367" d="m 56909,39922 -35,83" style="fill:none;stroke:#ff0200;stroke-opacity:1"/><path id="path4369" d="m 56874,40005 -42,79" style="fill:none;stroke:#ff0200;stroke-opacity:1"/><path id="path4371" d="m 56832,40084 -49,76" style="fill:none;stroke:#ff0200;stroke-opacity:1"/><path id="path4373" d="m 56783,40160 -54,72" style="fill:none;stroke:#ff0200;stroke-opacity:1"/><path id="path4375" d="m 56729,40232 -60,68" style="fill:none;stroke:#ff0200;stroke-opacity:1"/><path id="path4377" d="m 56669,40300 -64,63" style="fill:none;stroke:#ff0200;stroke-opacity:1"/><path id="path4379" d="m 56605,40363 -69,58" style="fill:none;stroke:#ff0200;stroke-opacity:1"/><path id="path4381" d="m 56536,40421 -73,51" style="fill:none;stroke:#ff0200;stroke-opacity:1"/><path id="path4383" d="m 56463,40472 -76,45" style="fill:none;stroke:#ff0200;stroke-opacity:1"/><path id="path4385" d="m 56387,40517 -80,38" style="fill:none;stroke:#ff0200;stroke-opacity:1"/><path id="path4387" d="m 56307,40555 -82,30" style="fill:none;stroke:#ff0200;stroke-opacity:1"/><path id="path4389" d="m 56225,40585 -84,22" style="fill:none;stroke:#ff0200;stroke-opacity:1"/><path id="path4391" d="m 56141,40607 -94,34" style="fill:none;stroke:#ff0200;stroke-opacity:1"/><path id="path4393" d="m 56047,40641 -107,59" style="fill:none;stroke:#ff0200;stroke-opacity:1"/><path id="path4395" d="m 55940,40700 -106,77" style="fill:none;stroke:#ff0200;stroke-opacity:1"/><path id="path4397" d="m 55834,40777 -93,86" style="fill:none;stroke:#ff0200;stroke-opacity:1"/><path id="path4399" d="m 55741,40863 -60,68" style="fill:none;stroke:#ff0200;stroke-opacity:1"/><path id="path4401" d="m 55681,40931 -46,61" style="fill:none;stroke:#ff0200;stroke-opacity:1"/><path id="path4403" d="m 55635,40992 -33,59" style="fill:none;stroke:#ff0200;stroke-opacity:1"/><path id="path4405" d="m 55602,41051 -21,62" style="fill:none;stroke:#ff0200;stroke-opacity:1"/><path id="path4407" d="m 55581,41113 -11,73" style="fill:none;stroke:#ff0200;stroke-opacity:1"/><path id="path4409" d="m 55570,41186 -2,88" style="fill:none;stroke:#ff0200;stroke-opacity:1"/><path id="path4411" d="m 55568,41274 16,248" style="fill:none;stroke:#ff0200;stroke-opacity:1"/><path id="path4413" d="m 55584,41522 10,194" style="fill:none;stroke:#ff0200;stroke-opacity:1"/><path id="path4415" d="m 55594,41716 -5,201" style="fill:none;stroke:#ff0200;stroke-opacity:1"/><path id="path4417" d="m 55589,41917 -17,183" style="fill:none;stroke:#ff0200;stroke-opacity:1"/><path id="path4419" d="m 55572,42100 -28,143" style="fill:none;stroke:#ff0200;stroke-opacity:1"/><path id="path4421" d="m 55544,42243 -29,126" style="fill:none;stroke:#ff0200;stroke-opacity:1"/><path id="path4423" d="m 55515,42369 -14,118" style="fill:none;stroke:#ff0200;stroke-opacity:1"/><path id="path4425" d="m 55501,42487 2,109" style="fill:none;stroke:#ff0200;stroke-opacity:1"/><path id="path4427" d="m 55503,42596 17,100" style="fill:none;stroke:#ff0200;stroke-opacity:1"/><path id="path4429" d="m 55520,42696 33,89" style="fill:none;stroke:#ff0200;stroke-opacity:1"/><path id="path4431" d="m 55553,42785 48,80" style="fill:none;stroke:#ff0200;stroke-opacity:1"/><path id="path4433" d="m 55601,42865 64,68" style="fill:none;stroke:#ff0200;stroke-opacity:1"/><path id="path4435" d="m 55665,42933 78,58" style="fill:none;stroke:#ff0200;stroke-opacity:1"/><path id="path4437" d="m 55743,42991 51,23" style="fill:none;stroke:#ff0200;stroke-opacity:1"/><path id="path4439" d="m 55794,43014 74,26" style="fill:none;stroke:#ff0200;stroke-opacity:1"/><path id="path4441" d="m 55868,43040 207,55" style="fill:none;stroke:#ff0200;stroke-opacity:1"/><path id="path4443" d="m 56075,43095 261,53" style="fill:none;stroke:#ff0200;stroke-opacity:1"/><path id="path4445" d="m 56336,43148 286,46" style="fill:none;stroke:#ff0200;stroke-opacity:1"/><path id="path4447" d="m 56622,43194 307,51" style="fill:none;stroke:#ff0200;stroke-opacity:1"/><path id="path4449" d="m 56929,43245 312,69" style="fill:none;stroke:#ff0200;stroke-opacity:1"/><path id="path4451" d="m 57241,43314 283,76" style="fill:none;stroke:#ff0200;stroke-opacity:1"/><path id="path4453" d="m 57524,43390 219,77" style="fill:none;stroke:#ff0200;stroke-opacity:1"/><path id="path4455" d="m 57743,43467 151,58" style="fill:none;stroke:#ff0200;stroke-opacity:1"/><path id="path4457" d="m 57894,43525 151,49" style="fill:none;stroke:#ff0200;stroke-opacity:1"/><path id="path4459" d="m 58045,43574 150,40" style="fill:none;stroke:#ff0200;stroke-opacity:1"/><path id="path4461" d="m 58195,43614 148,31" style="fill:none;stroke:#ff0200;stroke-opacity:1"/><path id="path4463" d="m 58343,43645 146,22" style="fill:none;stroke:#ff0200;stroke-opacity:1"/><path id="path4465" d="m 58489,43667 143,13" style="fill:none;stroke:#ff0200;stroke-opacity:1"/><path id="path4467" d="m 58632,43680 138,4" style="fill:none;stroke:#ff0200;stroke-opacity:1"/><path id="path4469" d="m 58770,43684 133,-5" style="fill:none;stroke:#ff0200;stroke-opacity:1"/><path id="path4471" d="m 58903,43679 127,-14" style="fill:none;stroke:#ff0200;stroke-opacity:1"/><path id="path4473" d="m 59030,43665 121,-22" style="fill:none;stroke:#ff0200;stroke-opacity:1"/><path id="path4475" d="m 59151,43643 113,-31" style="fill:none;stroke:#ff0200;stroke-opacity:1"/><path id="path4477" d="m 59264,43612 104,-40" style="fill:none;stroke:#ff0200;stroke-opacity:1"/><path id="path4479" d="m 59368,43572 95,-48" style="fill:none;stroke:#ff0200;stroke-opacity:1"/><path id="path4481" d="m 59463,43524 85,-57" style="fill:none;stroke:#ff0200;stroke-opacity:1"/><path id="path4483" d="m 59548,43467 74,-65" style="fill:none;stroke:#ff0200;stroke-opacity:1"/><path id="path4485" d="m 59622,43402 62,-74" style="fill:none;stroke:#ff0200;stroke-opacity:1"/><path id="path4487" d="m 59684,43328 40,-40" style="fill:none;stroke:#ff0200;stroke-opacity:1"/><path id="path4489" d="m 59724,43288 59,-38" style="fill:none;stroke:#ff0200;stroke-opacity:1"/><path id="path4491" d="m 59783,43250 76,-36" style="fill:none;stroke:#ff0200;stroke-opacity:1"/><path id="path4493" d="m 59859,43214 92,-32" style="fill:none;stroke:#ff0200;stroke-opacity:1"/><path id="path4495" d="m 59951,43182 107,-29" style="fill:none;stroke:#ff0200;stroke-opacity:1"/><path id="path4497" d="m 60058,43153 120,-26" style="fill:none;stroke:#ff0200;stroke-opacity:1"/><path id="path4499" d="m 60178,43127 273,-41" style="fill:none;stroke:#ff0200;stroke-opacity:1"/><path id="path4501" d="m 60451,43086 308,-25" style="fill:none;stroke:#ff0200;stroke-opacity:1"/><path id="path4503" d="m 60759,43061 331,-9" style="fill:none;stroke:#ff0200;stroke-opacity:1"/><path id="path4505" d="m 61090,43052 343,9" style="fill:none;stroke:#ff0200;stroke-opacity:1"/><path id="path4507" d="m 61433,43061 343,28" style="fill:none;stroke:#ff0200;stroke-opacity:1"/><path id="path4509" d="m 61776,43089 261,34" style="fill:none;stroke:#ff0200;stroke-opacity:1"/><path id="path4511" d="m 62037,43123 218,37" style="fill:none;stroke:#ff0200;stroke-opacity:1"/><path id="path4513" d="m 62255,43160 151,36" style="fill:none;stroke:#ff0200;stroke-opacity:1"/><path id="path4515" d="m 62406,43196 43,16" style="fill:none;stroke:#ff0200;stroke-opacity:1"/><path id="path4517" d="m 62449,43212 18,14" style="fill:none;stroke:#ff0200;stroke-opacity:1"/><path id="path4519" d="m 62467,43226 34,65" style="fill:none;stroke:#ff0200;stroke-opacity:1"/><path id="path4521" d="m 62501,43291 52,72" style="fill:none;stroke:#ff0200;stroke-opacity:1"/><path id="path4523" d="m 62553,43363 67,76" style="fill:none;stroke:#ff0200;stroke-opacity:1"/><path id="path4525" d="m 62620,43439 77,75" style="fill:none;stroke:#ff0200;stroke-opacity:1"/><path id="path4527" d="m 62697,43514 83,71" style="fill:none;stroke:#ff0200;stroke-opacity:1"/><path id="path4529" d="m 62780,43585 86,64" style="fill:none;stroke:#ff0200;stroke-opacity:1"/><path id="path4531" d="m 62866,43649 86,53" style="fill:none;stroke:#ff0200;stroke-opacity:1"/><path id="path4533" d="m 62952,43702 81,39" style="fill:none;stroke:#ff0200;stroke-opacity:1"/><path id="path4535" d="m 63033,43741 102,36" style="fill:none;stroke:#ff0200;stroke-opacity:1"/><path id="path4537" d="m 63135,43777 103,28" style="fill:none;stroke:#ff0200;stroke-opacity:1"/><path id="path4539" d="m 63238,43805 104,18" style="fill:none;stroke:#ff0200;stroke-opacity:1"/><path id="path4541" d="m 63342,43823 104,9" style="fill:none;stroke:#ff0200;stroke-opacity:1"/><path id="path4543" d="m 63446,43832 h 106" style="fill:none;stroke:#ff0200;stroke-opacity:1"/><path id="path4545" d="m 63552,43832 106,-9" style="fill:none;stroke:#ff0200;stroke-opacity:1"/><path id="path4547" d="m 63658,43823 107,-17" style="fill:none;stroke:#ff0200;stroke-opacity:1"/><path id="path4549" d="m 63765,43806 109,-28" style="fill:none;stroke:#ff0200;stroke-opacity:1"/><path id="path4551" d="m 63874,43778 110,-36" style="fill:none;stroke:#ff0200;stroke-opacity:1"/><path id="path4553" d="m 63984,43742 111,-45" style="fill:none;stroke:#ff0200;stroke-opacity:1"/><path id="path4555" d="m 64095,43697 112,-54" style="fill:none;stroke:#ff0200;stroke-opacity:1"/><path id="path4557" d="m 64207,43643 114,-64" style="fill:none;stroke:#ff0200;stroke-opacity:1"/><path id="path4559" d="m 64321,43579 115,-73" style="fill:none;stroke:#ff0200;stroke-opacity:1"/><path id="path4561" d="m 64436,43506 117,-82" style="fill:none;stroke:#ff0200;stroke-opacity:1"/><path id="path4563" d="m 64553,43424 118,-91" style="fill:none;stroke:#ff0200;stroke-opacity:1"/><path id="path4565" d="m 64671,43333 120,-101" style="fill:none;stroke:#ff0200;stroke-opacity:1"/><path id="path4567" d="m 64791,43232 204,-159" style="fill:none;stroke:#ff0200;stroke-opacity:1"/><path id="path4569" d="m 64995,43073 255,-174" style="fill:none;stroke:#ff0200;stroke-opacity:1"/><path id="path4571" d="m 65250,42899 273,-167" style="fill:none;stroke:#ff0200;stroke-opacity:1"/><path id="path4573" d="m 65523,42732 260,-139" style="fill:none;stroke:#ff0200;stroke-opacity:1"/><path id="path4575" d="m 65783,42593 290,-150" style="fill:none;stroke:#ff0200;stroke-opacity:1"/><path id="path4577" d="m 66073,42443 119,-70" style="fill:none;stroke:#ff0200;stroke-opacity:1"/><path id="path4579" d="m 66192,42373 101,-68" style="fill:none;stroke:#ff0200;stroke-opacity:1"/><path id="path4581" d="m 66293,42305 84,-65" style="fill:none;stroke:#ff0200;stroke-opacity:1"/><path id="path4583" d="m 66377,42240 67,-66" style="fill:none;stroke:#ff0200;stroke-opacity:1"/><path id="path4585" d="m 66444,42174 51,-65" style="fill:none;stroke:#ff0200;stroke-opacity:1"/><path id="path4587" d="m 66495,42109 35,-67" style="fill:none;stroke:#ff0200;stroke-opacity:1"/><path id="path4589" d="m 66530,42042 19,-68" style="fill:none;stroke:#ff0200;stroke-opacity:1"/><path id="path4591" d="m 66549,41974 4,-72" style="fill:none;stroke:#ff0200;stroke-opacity:1"/><path id="path4593" d="m 66553,41902 -11,-75" style="fill:none;stroke:#ff0200;stroke-opacity:1"/><path id="path4595" d="m 66542,41827 -25,-81" style="fill:none;stroke:#ff0200;stroke-opacity:1"/><path id="path4597" d="m 66517,41746 -40,-86" style="fill:none;stroke:#ff0200;stroke-opacity:1"/><path id="path4599" d="m 66477,41660 -53,-92" style="fill:none;stroke:#ff0200;stroke-opacity:1"/><path id="path4601" d="m 66424,41568 -67,-100" style="fill:none;stroke:#ff0200;stroke-opacity:1"/><path id="path4603" d="m 66357,41468 -80,-109" style="fill:none;stroke:#ff0200;stroke-opacity:1"/><path id="path4605" d="m 66277,41359 -92,-138" style="fill:none;stroke:#ff0200;stroke-opacity:1"/><path id="path4607" d="m 66185,41221 -93,-172" style="fill:none;stroke:#ff0200;stroke-opacity:1"/><path id="path4609" d="m 66092,41049 -83,-183" style="fill:none;stroke:#ff0200;stroke-opacity:1"/><path id="path4611" d="m 66009,40866 -63,-172" style="fill:none;stroke:#ff0200;stroke-opacity:1"/><path id="path4613" d="m 65946,40694 -57,-158" style="fill:none;stroke:#ff0200;stroke-opacity:1"/><path id="path4615" d="m 65889,40536 -65,-142" style="fill:none;stroke:#ff0200;stroke-opacity:1"/><path id="path4617" d="m 65824,40394 -67,-112" style="fill:none;stroke:#ff0200;stroke-opacity:1"/><path id="path4619" d="m 65757,40282 -31,-39" style="fill:none;stroke:#ff0200;stroke-opacity:1"/><path id="path4621" d="m 65726,40243 -29,-26" style="fill:none;stroke:#ff0200;stroke-opacity:1"/><path id="path4623" d="m 65697,40217 -37,-31" style="fill:none;stroke:#ff0200;stroke-opacity:1"/><path id="path4625" d="m 65660,40186 -29,-42" style="fill:none;stroke:#ff0200;stroke-opacity:1"/><path id="path4627" d="m 65631,40144 -23,-57" style="fill:none;stroke:#ff0200;stroke-opacity:1"/><path id="path4629" d="m 65608,40087 -17,-79" style="fill:none;stroke:#ff0200;stroke-opacity:1"/><path id="path4631" d="m 65591,40008 -11,-104" style="fill:none;stroke:#ff0200;stroke-opacity:1"/><path id="path4633" d="m 65580,39904 -7,-136" style="fill:none;stroke:#ff0200;stroke-opacity:1"/><path id="path4635" d="m 65573,39768 -5,-388" style="fill:none;stroke:#ff0200;stroke-opacity:1"/><path id="path4637" d="m 65568,39380 -6,-408" style="fill:none;stroke:#ff0200;stroke-opacity:1"/><path id="path4639" d="m 65562,38972 -11,-153" style="fill:none;stroke:#ff0200;stroke-opacity:1"/><path id="path4641" d="m 65551,38819 -16,-132" style="fill:none;stroke:#ff0200;stroke-opacity:1"/><path id="path4643" d="m 65535,38687 -25,-119" style="fill:none;stroke:#ff0200;stroke-opacity:1"/><path id="path4645" d="m 65510,38568 -35,-114" style="fill:none;stroke:#ff0200;stroke-opacity:1"/><path id="path4647" d="m 65475,38454 -46,-118" style="fill:none;stroke:#ff0200;stroke-opacity:1"/><path id="path4649" d="m 65429,38336 -58,-131" style="fill:none;stroke:#ff0200;stroke-opacity:1"/><path id="path4651" d="m 65371,38205 -103,-214" style="fill:none;stroke:#ff0200;stroke-opacity:1"/><path id="path4653" d="m 65268,37991 -110,-206" style="fill:none;stroke:#ff0200;stroke-opacity:1"/><path id="path4655" d="m 65158,37785 -121,-204" style="fill:none;stroke:#ff0200;stroke-opacity:1"/><path id="path4657" d="m 65037,37581 -135,-206" style="fill:none;stroke:#ff0200;stroke-opacity:1"/><path id="path4659" d="m 64902,37375 -150,-211" style="fill:none;stroke:#ff0200;stroke-opacity:1"/><path id="path4661" d="m 64752,37164 -170,-223" style="fill:none;stroke:#ff0200;stroke-opacity:1"/><path id="path4663" d="m 64582,36941 -193,-237" style="fill:none;stroke:#ff0200;stroke-opacity:1"/><path id="path4665" d="m 64389,36704 -218,-257" style="fill:none;stroke:#ff0200;stroke-opacity:1"/><path id="path4667" d="m 64171,36447 -253,-299" style="fill:none;stroke:#ff0200;stroke-opacity:1"/><path id="path4669" d="m 63918,36148 -196,-252" style="fill:none;stroke:#ff0200;stroke-opacity:1"/><path id="path4671" d="m 63722,35896 -79,-114" style="fill:none;stroke:#ff0200;stroke-opacity:1"/><path id="path4673" d="m 63643,35782 -67,-111" style="fill:none;stroke:#ff0200;stroke-opacity:1"/><path id="path4675" d="m 63576,35671 -58,-109" style="fill:none;stroke:#ff0200;stroke-opacity:1"/><path id="path4677" d="m 63518,35562 -48,-111" style="fill:none;stroke:#ff0200;stroke-opacity:1"/><path id="path4679" d="m 63470,35451 -39,-116" style="fill:none;stroke:#ff0200;stroke-opacity:1"/><path id="path4681" d="m 63431,35335 -33,-122" style="fill:none;stroke:#ff0200;stroke-opacity:1"/><path id="path4683" d="m 63398,35213 -27,-133" style="fill:none;stroke:#ff0200;stroke-opacity:1"/><path id="path4685" d="m 63371,35080 -21,-145" style="fill:none;stroke:#ff0200;stroke-opacity:1"/><path id="path4687" d="m 63350,34935 -33,-339" style="fill:none;stroke:#ff0200;stroke-opacity:1"/><path id="path4689" d="m 63317,34596 -26,-421" style="fill:none;stroke:#ff0200;stroke-opacity:1"/><path id="path4691" d="m 63291,34175 -27,-426" style="fill:none;stroke:#ff0200;stroke-opacity:1"/><path id="path4693" d="m 63264,33749 -32,-380" style="fill:none;stroke:#ff0200;stroke-opacity:1"/><path id="path4695" d="m 63232,33369 -34,-292" style="fill:none;stroke:#ff0200;stroke-opacity:1"/><path id="path4697" d="m 63198,33077 -17,-100" style="fill:none;stroke:#ff0200;stroke-opacity:1"/><path id="path4699" d="m 63181,32977 -15,-63" style="fill:none;stroke:#ff0200;stroke-opacity:1"/><path id="path4701" d="m 63166,32914 -61,-164" style="fill:none;stroke:#ff0200;stroke-opacity:1"/><path id="path4703" d="m 63105,32750 -69,-152" style="fill:none;stroke:#ff0200;stroke-opacity:1"/><path id="path4705" d="m 63036,32598 -76,-141" style="fill:none;stroke:#ff0200;stroke-opacity:1"/><path id="path4707" d="m 62960,32457 -83,-131" style="fill:none;stroke:#ff0200;stroke-opacity:1"/><path id="path4709" d="m 62877,32326 -92,-119" style="fill:none;stroke:#ff0200;stroke-opacity:1"/><path id="path4711" d="m 62785,32207 -99,-109" style="fill:none;stroke:#ff0200;stroke-opacity:1"/><path id="path4713" d="m 62686,32098 -107,-97" style="fill:none;stroke:#ff0200;stroke-opacity:1"/><path id="path4715" d="m 62579,32001 -116,-88" style="fill:none;stroke:#ff0200;stroke-opacity:1"/><path id="path4717" d="m 62463,31913 -124,-76" style="fill:none;stroke:#ff0200;stroke-opacity:1"/><path id="path4719" d="m 62339,31837 -132,-67" style="fill:none;stroke:#ff0200;stroke-opacity:1"/><path id="path4721" d="m 62207,31770 -140,-56" style="fill:none;stroke:#ff0200;stroke-opacity:1"/><path id="path4723" d="m 62067,31714 -149,-45" style="fill:none;stroke:#ff0200;stroke-opacity:1"/><path id="path4725" d="m 61918,31669 -158,-35" style="fill:none;stroke:#ff0200;stroke-opacity:1"/><path id="path4727" d="m 61760,31634 -166,-25" style="fill:none;stroke:#ff0200;stroke-opacity:1"/><path id="path4729" d="m 61594,31609 -176,-15" style="fill:none;stroke:#ff0200;stroke-opacity:1"/><path id="path4731" d="m 61418,31594 -184,-5" style="fill:none;stroke:#ff0200;stroke-opacity:1"/><path id="path4733" d="m 61234,31589 v 0" style="fill:none;stroke:#ff0200;stroke-opacity:1"/><path id="path4735" d="m 61234,31589 v 0" style="fill:none;stroke:#ff0200;stroke-opacity:1"/></g><g style="fill:#fff;fill-opacity:1;stroke:#fff;stroke-width:0;stroke-linecap:round;stroke-linejoin:round;stroke-opacity:1" id="g940" transform="translate(-31580.379,-28801.93)"><circle id="circle938" cx="60039.398" cy="40354.301" r="78.74"/></g><g style="fill:#fff;fill-opacity:1;stroke:#fff;stroke-width:0;stroke-linecap:round;stroke-linejoin:round;stroke-opacity:1" id="g946" transform="translate(-31580.379,-28093.329)"><circle id="circle944" cx="59960.602" cy="39645.699" r="78.74"/></g><g style="fill:#fff;fill-opacity:1;stroke:#fff;stroke-width:0;stroke-linecap:round;stroke-linejoin:round;stroke-opacity:1" id="g952" transform="translate(-31580.379,-30849.231)"><circle id="circle950" cx="58346.5" cy="42401.602" r="78.74"/></g><g style="fill:#fff;fill-opacity:1;stroke:#fff;stroke-width:0;stroke-linecap:round;stroke-linejoin:round;stroke-opacity:1" id="g958" transform="translate(-31580.379,-30101.129)"><circle id="circle956" cx="57716.5" cy="41653.5" r="78.74"/></g><g style="fill:#fff;fill-opacity:1;stroke:#fff;stroke-width:0;stroke-linecap:round;stroke-linejoin:round;stroke-opacity:1" id="g964" transform="translate(-31580.379,-33312.731)"><circle id="circle962" cx="54096.699" cy="44865.102" r="344.488"/></g><g style="fill:#fff;fill-opacity:1;stroke:#fff;stroke-width:0;stroke-linecap:round;stroke-linejoin:round;stroke-opacity:1" id="g970" transform="translate(-31580.379,-28356.829)"><circle id="circle968" cx="61500.5" cy="39909.199" r="177.165"/></g><g style="fill:#fff;fill-opacity:1;stroke:#fff;stroke-width:0;stroke-linecap:round;stroke-linejoin:round;stroke-opacity:1" id="g976" transform="translate(-31580.379,-29451.93)"><circle id="circle974" cx="61942.898" cy="41004.301" r="177.165"/></g><g style="fill:none;fill-opacity:0;stroke:red;stroke-width:39.37009811;stroke-linecap:round;stroke-linejoin:round;stroke-opacity:1" id="g1346" transform="matrix(1.0001088,0,0,1.0022005,-33042.859,-31382.884)"><path id="path984" d="m 60012,45436 -154,-239" style="fill:none;stroke:red;stroke-opacity:1"/><path id="path986" d="m 59858,45197 -166,-278" style="fill:none;stroke:red;stroke-opacity:1"/><path id="path988" d="m 59692,44919 -178,-316" style="fill:none;stroke:red;stroke-opacity:1"/><path id="path990" d="m 59514,44603 -189,-354" style="fill:none;stroke:red;stroke-opacity:1"/><path id="path992" d="m 59325,44249 -153,-279" style="fill:none;stroke:red;stroke-opacity:1"/><path id="path994" d="m 59172,43970 -55,-88" style="fill:none;stroke:red;stroke-opacity:1"/><path id="path996" d="m 60153,45633 -141,-197" style="fill:none;stroke:red;stroke-opacity:1"/><path id="path998" d="m 60281,45789 -128,-156" style="fill:none;stroke:red;stroke-opacity:1"/><path id="path1000" d="m 60394,45903 -113,-114" style="fill:none;stroke:red;stroke-opacity:1"/><path id="path1002" d="m 60445,45944 -51,-41" style="fill:none;stroke:red;stroke-opacity:1"/><path id="path1004" d="m 60492,45973 -47,-29" style="fill:none;stroke:red;stroke-opacity:1"/><path id="path1006" d="m 59117,43882 -29,-36" style="fill:none;stroke:red;stroke-opacity:1"/><path id="path1008" d="m 60522,45985 -30,-12" style="fill:none;stroke:red;stroke-opacity:1"/><path id="path1010" d="m 62443,46972 -7,-40" style="fill:none;stroke:red;stroke-opacity:1"/><path id="path1012" d="m 62436,46932 -5,-95" style="fill:none;stroke:red;stroke-opacity:1"/><path id="path1014" d="m 62431,46837 -5,-302" style="fill:none;stroke:red;stroke-opacity:1"/><path id="path1016" d="m 62426,46535 -6,-305" style="fill:none;stroke:red;stroke-opacity:1"/><path id="path1018" d="m 62420,46230 -6,-100" style="fill:none;stroke:red;stroke-opacity:1"/><path id="path1020" d="m 62414,46130 -7,-44" style="fill:none;stroke:red;stroke-opacity:1"/><path id="path1022" d="m 62407,46086 -17,-7" style="fill:none;stroke:red;stroke-opacity:1"/><path id="path1024" d="m 62390,46079 -43,-7" style="fill:none;stroke:red;stroke-opacity:1"/><path id="path1026" d="m 62347,46072 -169,-13" style="fill:none;stroke:red;stroke-opacity:1"/><path id="path1028" d="m 62178,46059 -699,-23" style="fill:none;stroke:red;stroke-opacity:1"/><path id="path1030" d="m 61479,46036 -469,-13" style="fill:none;stroke:red;stroke-opacity:1"/><path id="path1032" d="m 61010,46023 -288,-13" style="fill:none;stroke:red;stroke-opacity:1"/><path id="path1034" d="m 60722,46010 -157,-15" style="fill:none;stroke:red;stroke-opacity:1"/><path id="path1036" d="m 60565,45995 -43,-10" style="fill:none;stroke:red;stroke-opacity:1"/><path id="path1038" d="m 59088,43846 -72,16" style="fill:none;stroke:red;stroke-opacity:1"/><path id="path1040" d="m 59016,43862 -167,50" style="fill:none;stroke:red;stroke-opacity:1"/><path id="path1042" d="m 58849,43912 -507,168" style="fill:none;stroke:red;stroke-opacity:1"/><path id="path1044" d="m 58342,44080 -539,188" style="fill:none;stroke:red;stroke-opacity:1"/><path id="path1046" d="m 57803,44268 -209,77" style="fill:none;stroke:red;stroke-opacity:1"/><path id="path1048" d="m 57594,44345 -129,53" style="fill:none;stroke:red;stroke-opacity:1"/><path id="path1050" d="m 57465,44398 -243,84" style="fill:none;stroke:red;stroke-opacity:1"/><path id="path1052" d="m 57222,44482 -409,121" style="fill:none;stroke:red;stroke-opacity:1"/><path id="path1054" d="m 56813,44603 -969,269" style="fill:none;stroke:red;stroke-opacity:1"/><path id="path1056" d="m 55844,44872 -825,230" style="fill:none;stroke:red;stroke-opacity:1"/><path id="path1058" d="m 55019,45102 -664,185" style="fill:none;stroke:red;stroke-opacity:1"/><path id="path1060" d="m 54355,45287 -497,143" style="fill:none;stroke:red;stroke-opacity:1"/><path id="path1062" d="m 53858,45430 -109,31" style="fill:none;stroke:red;stroke-opacity:1"/><path id="path1064" d="m 53749,45461 -71,15" style="fill:none;stroke:red;stroke-opacity:1"/><path id="path1066" d="m 53678,45476 h -44" style="fill:none;stroke:red;stroke-opacity:1"/><path id="path1068" d="m 53634,45476 -28,-12" style="fill:none;stroke:red;stroke-opacity:1"/><path id="path1070" d="m 53606,45464 -58,-81" style="fill:none;stroke:red;stroke-opacity:1"/><path id="path1072" d="m 53548,45383 -87,-150" style="fill:none;stroke:red;stroke-opacity:1"/><path id="path1074" d="m 53461,45233 -342,-632" style="fill:none;stroke:red;stroke-opacity:1"/><path id="path1076" d="m 53119,44601 -479,-886" style="fill:none;stroke:red;stroke-opacity:1"/><path id="path1078" d="m 52640,43715 -671,-1233" style="fill:none;stroke:red;stroke-opacity:1"/><path id="path1080" d="m 51969,42482 -138,-239" style="fill:none;stroke:red;stroke-opacity:1"/><path id="path1082" d="m 51831,42243 -60,-88" style="fill:none;stroke:red;stroke-opacity:1"/><path id="path1084" d="m 51771,42155 -33,-27" style="fill:none;stroke:red;stroke-opacity:1"/><path id="path1086" d="m 51738,42128 -23,-6" style="fill:none;stroke:red;stroke-opacity:1"/><path id="path1088" d="m 51715,42122 -32,-2" style="fill:none;stroke:red;stroke-opacity:1"/><path id="path1090" d="m 51683,42120 -114,12" style="fill:none;stroke:red;stroke-opacity:1"/><path id="path1092" d="m 51569,42132 -211,31" style="fill:none;stroke:red;stroke-opacity:1"/><path id="path1094" d="m 51358,42163 -261,37" style="fill:none;stroke:red;stroke-opacity:1"/><path id="path1096" d="m 51097,42200 -85,8" style="fill:none;stroke:red;stroke-opacity:1"/><path id="path1098" d="m 51012,42208 h -61" style="fill:none;stroke:red;stroke-opacity:1"/><path id="path1100" d="m 50951,42208 -41,-7" style="fill:none;stroke:red;stroke-opacity:1"/><path id="path1102" d="m 50910,42201 -26,-16" style="fill:none;stroke:red;stroke-opacity:1"/><path id="path1104" d="m 50884,42185 -15,-24" style="fill:none;stroke:red;stroke-opacity:1"/><path id="path1106" d="m 50869,42161 -9,-33" style="fill:none;stroke:red;stroke-opacity:1"/><path id="path1108" d="m 50860,42128 -18,-50" style="fill:none;stroke:red;stroke-opacity:1"/><path id="path1110" d="m 50842,42078 -37,-82" style="fill:none;stroke:red;stroke-opacity:1"/><path id="path1112" d="m 50805,41996 -112,-215" style="fill:none;stroke:red;stroke-opacity:1"/><path id="path1114" d="m 50693,41781 -107,-197" style="fill:none;stroke:red;stroke-opacity:1"/><path id="path1116" d="m 50586,41584 -45,-92" style="fill:none;stroke:red;stroke-opacity:1"/><path id="path1118" d="m 50541,41492 11,-11" style="fill:none;stroke:red;stroke-opacity:1"/><path id="path1120" d="m 50552,41481 26,-5" style="fill:none;stroke:red;stroke-opacity:1"/><path id="path1122" d="m 50578,41476 103,-20" style="fill:none;stroke:red;stroke-opacity:1"/><path id="path1124" d="m 50681,41456 198,-50" style="fill:none;stroke:red;stroke-opacity:1"/><path id="path1126" d="m 50879,41406 905,-237" style="fill:none;stroke:red;stroke-opacity:1"/><path id="path1128" d="m 51784,41169 2005,-527" style="fill:none;stroke:red;stroke-opacity:1"/><path id="path1130" d="m 53789,40642 931,-246" style="fill:none;stroke:red;stroke-opacity:1"/><path id="path1132" d="m 54720,40396 496,-126" style="fill:none;stroke:red;stroke-opacity:1"/><path id="path1134" d="m 55216,40270 99,-23" style="fill:none;stroke:red;stroke-opacity:1"/><path id="path1136" d="m 55315,40247 50,-19" style="fill:none;stroke:red;stroke-opacity:1"/><path id="path1138" d="m 55365,40228 10,-9" style="fill:none;stroke:red;stroke-opacity:1"/><path id="path1140" d="m 55375,40219 2,-11" style="fill:none;stroke:red;stroke-opacity:1"/><path id="path1142" d="m 55377,40208 -14,-31" style="fill:none;stroke:red;stroke-opacity:1"/><path id="path1144" d="m 55363,40177 -44,-90" style="fill:none;stroke:red;stroke-opacity:1"/><path id="path1146" d="m 55319,40087 -39,-101" style="fill:none;stroke:red;stroke-opacity:1"/><path id="path1148" d="m 55280,39986 -28,-95" style="fill:none;stroke:red;stroke-opacity:1"/><path id="path1150" d="m 55252,39891 -11,-71" style="fill:none;stroke:red;stroke-opacity:1"/><path id="path1152" d="m 55241,39820 3,-42" style="fill:none;stroke:red;stroke-opacity:1"/><path id="path1154" d="m 55244,39778 9,-40" style="fill:none;stroke:red;stroke-opacity:1"/><path id="path1156" d="m 55253,39738 32,-72" style="fill:none;stroke:red;stroke-opacity:1"/><path id="path1158" d="m 55285,39666 50,-61" style="fill:none;stroke:red;stroke-opacity:1"/><path id="path1160" d="m 55335,39605 63,-48" style="fill:none;stroke:red;stroke-opacity:1"/><path id="path1162" d="m 55398,39557 72,-32" style="fill:none;stroke:red;stroke-opacity:1"/><path id="path1164" d="m 55470,39525 78,-14" style="fill:none;stroke:red;stroke-opacity:1"/><path id="path1166" d="m 55548,39511 81,5" style="fill:none;stroke:red;stroke-opacity:1"/><path id="path1168" d="m 55629,39516 40,11" style="fill:none;stroke:red;stroke-opacity:1"/><path id="path1170" d="m 55669,39527 39,17" style="fill:none;stroke:red;stroke-opacity:1"/><path id="path1172" d="m 55708,39544 63,44" style="fill:none;stroke:red;stroke-opacity:1"/><path id="path1174" d="m 55771,39588 56,65" style="fill:none;stroke:red;stroke-opacity:1"/><path id="path1176" d="m 55827,39653 54,94" style="fill:none;stroke:red;stroke-opacity:1"/><path id="path1178" d="m 55881,39747 56,130" style="fill:none;stroke:red;stroke-opacity:1"/><path id="path1180" d="m 55937,39877 30,70" style="fill:none;stroke:red;stroke-opacity:1"/><path id="path1182" d="m 55967,39947 29,51" style="fill:none;stroke:red;stroke-opacity:1"/><path id="path1184" d="m 55996,39998 26,32" style="fill:none;stroke:red;stroke-opacity:1"/><path id="path1186" d="m 56022,40030 23,13" style="fill:none;stroke:red;stroke-opacity:1"/><path id="path1188" d="m 56045,40043 68,-10" style="fill:none;stroke:red;stroke-opacity:1"/><path id="path1190" d="m 56113,40033 152,-33" style="fill:none;stroke:red;stroke-opacity:1"/><path id="path1192" d="m 56265,40000 465,-112" style="fill:none;stroke:red;stroke-opacity:1"/><path id="path1194" d="m 56730,39888 799,-197" style="fill:none;stroke:red;stroke-opacity:1"/><path id="path1196" d="m 57529,39691 480,-119" style="fill:none;stroke:red;stroke-opacity:1"/><path id="path1198" d="m 58009,39572 689,-174" style="fill:none;stroke:red;stroke-opacity:1"/><path id="path1200" d="m 58698,39398 566,-141" style="fill:none;stroke:red;stroke-opacity:1"/><path id="path1202" d="m 59264,39257 431,-107" style="fill:none;stroke:red;stroke-opacity:1"/><path id="path1204" d="m 59695,39150 722,-178" style="fill:none;stroke:red;stroke-opacity:1"/><path id="path1206" d="m 60417,38972 693,-177" style="fill:none;stroke:red;stroke-opacity:1"/><path id="path1208" d="m 61110,38795 224,-55" style="fill:none;stroke:red;stroke-opacity:1"/><path id="path1210" d="m 61334,38740 159,-33" style="fill:none;stroke:red;stroke-opacity:1"/><path id="path1212" d="m 61493,38707 66,-7" style="fill:none;stroke:red;stroke-opacity:1"/><path id="path1214" d="m 61559,38700 42,7" style="fill:none;stroke:red;stroke-opacity:1"/><path id="path1216" d="m 61601,38707 35,26" style="fill:none;stroke:red;stroke-opacity:1"/><path id="path1218" d="m 61636,38733 44,53" style="fill:none;stroke:red;stroke-opacity:1"/><path id="path1220" d="m 61680,38786 100,144" style="fill:none;stroke:red;stroke-opacity:1"/><path id="path1222" d="m 61780,38930 152,389" style="fill:none;stroke:red;stroke-opacity:1"/><path id="path1224" d="m 61932,39319 216,595" style="fill:none;stroke:red;stroke-opacity:1"/><path id="path1226" d="m 62148,39914 77,192" style="fill:none;stroke:red;stroke-opacity:1"/><path id="path1228" d="m 62225,40106 37,72" style="fill:none;stroke:red;stroke-opacity:1"/><path id="path1230" d="m 62262,40178 29,43" style="fill:none;stroke:red;stroke-opacity:1"/><path id="path1232" d="m 62291,40221 48,73" style="fill:none;stroke:red;stroke-opacity:1"/><path id="path1234" d="m 62339,40294 35,89" style="fill:none;stroke:red;stroke-opacity:1"/><path id="path1236" d="m 62374,40383 99,262" style="fill:none;stroke:red;stroke-opacity:1"/><path id="path1238" d="m 62473,40645 200,488" style="fill:none;stroke:red;stroke-opacity:1"/><path id="path1240" d="m 62673,41133 426,1033" style="fill:none;stroke:red;stroke-opacity:1"/><path id="path1242" d="m 63099,42166 53,154" style="fill:none;stroke:red;stroke-opacity:1"/><path id="path1244" d="m 63152,42320 3,30" style="fill:none;stroke:red;stroke-opacity:1"/><path id="path1246" d="m 63155,42350 -7,13" style="fill:none;stroke:red;stroke-opacity:1"/><path id="path1248" d="m 63148,42363 -203,83" style="fill:none;stroke:red;stroke-opacity:1"/><path id="path1250" d="m 62945,42446 -492,182" style="fill:none;stroke:red;stroke-opacity:1"/><path id="path1252" d="m 62453,42628 -662,236" style="fill:none;stroke:red;stroke-opacity:1"/><path id="path1254" d="m 61791,42864 -715,250" style="fill:none;stroke:red;stroke-opacity:1"/><path id="path1256" d="m 61076,43114 -357,124" style="fill:none;stroke:red;stroke-opacity:1"/><path id="path1258" d="m 60719,43238 -201,78" style="fill:none;stroke:red;stroke-opacity:1"/><path id="path1260" d="m 60518,43316 -56,28" style="fill:none;stroke:red;stroke-opacity:1"/><path id="path1262" d="m 60462,43344 -34,22" style="fill:none;stroke:red;stroke-opacity:1"/><path id="path1264" d="m 60428,43366 -16,21" style="fill:none;stroke:red;stroke-opacity:1"/><path id="path1266" d="m 60412,43387 -4,20" style="fill:none;stroke:red;stroke-opacity:1"/><path id="path1268" d="m 60408,43407 32,77" style="fill:none;stroke:red;stroke-opacity:1"/><path id="path1270" d="m 60440,43484 85,167" style="fill:none;stroke:red;stroke-opacity:1"/><path id="path1272" d="m 60525,43651 261,487" style="fill:none;stroke:red;stroke-opacity:1"/><path id="path1274" d="m 60786,44138 268,482" style="fill:none;stroke:red;stroke-opacity:1"/><path id="path1276" d="m 61054,44620 94,160" style="fill:none;stroke:red;stroke-opacity:1"/><path id="path1278" d="m 61148,44780 46,66" style="fill:none;stroke:red;stroke-opacity:1"/><path id="path1280" d="m 61194,44846 54,6" style="fill:none;stroke:red;stroke-opacity:1"/><path id="path1282" d="m 61248,44852 122,1" style="fill:none;stroke:red;stroke-opacity:1"/><path id="path1284" d="m 61370,44853 360,-8" style="fill:none;stroke:red;stroke-opacity:1"/><path id="path1286" d="m 61730,44845 374,-17" style="fill:none;stroke:red;stroke-opacity:1"/><path id="path1288" d="m 62104,44828 220,-19" style="fill:none;stroke:red;stroke-opacity:1"/><path id="path1290" d="m 62324,44809 57,-13" style="fill:none;stroke:red;stroke-opacity:1"/><path id="path1292" d="m 62381,44796 -7,-546" style="fill:none;stroke:red;stroke-opacity:1"/><path id="path1294" d="m 62374,44250 -8,-547" style="fill:none;stroke:red;stroke-opacity:1"/><path id="path1296" d="m 62366,43703 h 1587" style="fill:none;stroke:red;stroke-opacity:1"/><path id="path1298" d="m 63953,43703 h 1586" style="fill:none;stroke:red;stroke-opacity:1"/><path id="path1300" d="m 65539,43703 v 1637" style="fill:none;stroke:red;stroke-opacity:1"/><path id="path1302" d="m 65539,45340 v 1636" style="fill:none;stroke:red;stroke-opacity:1"/><path id="path1304" d="m 65539,46976 -1540,6" style="fill:none;stroke:red;stroke-opacity:1"/><path id="path1306" d="M 63999,46982 H 62907" style="fill:none;stroke:red;stroke-opacity:1"/><path id="path1308" d="m 62907,46982 -337,-4" style="fill:none;stroke:red;stroke-opacity:1"/><path id="path1310" d="m 62570,46978 -127,-6" style="fill:none;stroke:red;stroke-opacity:1"/><path id="path1312" d="m 62443,46972 v 0" style="fill:none;stroke:red;stroke-opacity:1"/><path id="path1314" d="m 62443,46972 v 0" style="fill:none;stroke:red;stroke-opacity:1"/></g><flowRoot id="flowRoot2836" transform="matrix(73.657015,-73.657015,150.33287,150.33287,-236.11564,-4666.4457)" xml:space="preserve" style="font-style:normal;font-variant:normal;font-weight:400;font-stretch:normal;font-size:10.66666698px;line-height:1.25;font-family:sans-serif;-inkscape-font-specification:'sans-serif, Normal';font-variant-ligatures:normal;font-variant-caps:normal;font-variant-numeric:normal;font-feature-settings:normal;text-align:start;letter-spacing:0;word-spacing:0;writing-mode:lr-tb;text-anchor:start;fill:#000;fill-opacity:1;stroke:none"><flowRegion id="flowRegion2838"><rect id="rect2840" width="47.825" height="13.824" x="-45.583" y="28.11"/></flowRegion><flowPara id="flowPara2842">Push</flowPara><flowPara id="flowPara2844">Here</flowPara></flowRoot><flowRoot id="flowRoot2846" xml:space="preserve" style="fill:#000;fill-opacity:1;stroke:none;font-family:sans-serif;font-style:normal;font-weight:400;font-size:10.66666667px;line-height:1.25;letter-spacing:0;word-spacing:0;-inkscape-font-specification:'sans-serif, Normal';font-stretch:normal;font-variant:normal;text-anchor:start;text-align:start;writing-mode:lr;font-variant-ligatures:normal;font-variant-caps:normal;font-variant-numeric:normal;font-feature-settings:normal"><flowRegion id="flowRegion2848"><rect id="rect2850" width="2.989" height="11.956" x="-12.704" y="41.934"/></flowRegion><flowPara id="flowPara2852"/></flowRoot><flowRoot style="font-style:normal;font-variant:normal;font-weight:400;font-stretch:normal;font-size:10.66666698px;line-height:1.25;font-family:sans-serif;-inkscape-font-specification:'sans-serif, Normal';font-variant-ligatures:normal;font-variant-caps:normal;font-variant-numeric:normal;font-feature-settings:normal;text-align:start;letter-spacing:0;word-spacing:0;writing-mode:lr-tb;text-anchor:start;fill:#000;fill-opacity:1;stroke:none" id="flowRoot2862" transform="matrix(73.657015,73.657015,-150.33287,150.33287,39845.268,115.10638)" xml:space="preserve"><flowRegion id="flowRegion2856"><rect id="rect2854" width="47.825" height="13.824" x="-45.583" y="28.11"/></flowRegion><flowPara id="flowPara2858">Push</flowPara><flowPara id="flowPara2860">Here</flowPara></flowRoot><rect style="fill:none;fill-opacity:0;stroke:red;stroke-width:39.35923767;stroke-miterlimit:4;stroke-dasharray:none;stroke-opacity:1" id="rect2864" width="35224.664" height="23682.348" x="16.339" y="19.745"/><rect style="fill:none;fill-opacity:0;stroke:red;stroke-width:39.37010956;stroke-miterlimit:4;stroke-dasharray:none;stroke-opacity:1" id="rect2885" width="4368.842" height="4614.65" x="6460.735" y="13008.384"/><rect style="fill:none;fill-opacity:0;stroke:red;stroke-width:39.37010956;stroke-miterlimit:4;stroke-dasharray:none;stroke-opacity:1" id="rect2887" width="3173.345" height="3280.202" x="29329.928" y="12416.285"/><rect style="fill:none;fill-opacity:0;stroke:red;stroke-width:44.06132507;stroke-miterlimit:4;stroke-dasharray:none;stroke-opacity:1" id="rect2889" width="7825.989" height="4715.752" x="22298.162" y="7358.55"/><ellipse style="fill:none;fill-opacity:0;stroke:red;stroke-width:39.37010956;stroke-miterlimit:4;stroke-dasharray:none;stroke-opacity:1" id="path2891" cx="8866.698" cy="11094.623" rx="973.002" ry="1011.922"/></svg>