<svg xmlns="http://www.w3.org/2000/svg" xmlns:svg="http://www.w3.org/2000/svg" id="svg1038" width="1122.527" height="793.727" version="1.1" viewBox="0 0 116930 82680"><metadata id="metadata1044"/><title id="title2">SVG Picture created as Python-Edge_Cuts.svg date 2020/06/14 09:49:41</title><desc id="desc4">Picture generated by PCBNEW</desc><rect style="fill:none;fill-opacity:0;stroke:#ff0300;stroke-width:96.45677185;stroke-miterlimit:4;stroke-dasharray:none;stroke-opacity:1" id="rect6334" width="35161.16" height="23653.873" x="142.065" y="140.049"/><g style="fill:#008400;fill-opacity:1;stroke:#008400;stroke-width:3.93701005;stroke-linecap:round;stroke-linejoin:round;stroke-opacity:1" id="g10634" transform="translate(-52213.759,-26066.317)"><path style="fill:#008400;fill-opacity:1;fill-rule:evenodd;stroke:#008400;stroke-width:3.93701005;stroke-linecap:round;stroke-linejoin:round;stroke-opacity:1" id="path10590" d="m 58208.9,41397.3 -72.1,36.3 -53.5,52.7 -2.9,4.4 -15.2,27.6 -8.4,29.4 -2.6,39.7 2.6,58.4 4.3,54.6 5.3,82 4.4,101.5 3,107.4 1,87.1 -0.3,91.3 -1.9,64.6 -4.4,44.3 -7.6,30.7 -11.9,23.6 -8.4,12.1 -33.8,33.5 -44.8,15.6 -28.6,3.2 -97.6,-7.5 -89.7,-38.3 -84.1,-70.1 -21.6,-24 -41.2,-44.7 -35.5,-32.3 -22.5,-13.3 h -0.8 l -21.9,13 -28.9,32.9 -12.7,18.7 -58,75 -59.1,45 -58,14.1 -54.9,-17.4 -37.1,-33.4 -31.8,-42.8 -27.7,-50.4 -26.4,-64.6 -28.1,-85.7 -23.1,-79.4 -23.4,-83 -24.5,-86.4 -21.1,-74.1 -4.3,-15 -31.2,-108.4 -168.5,-64.3 -85.8,-31 -58.5,-16.6 -33.4,-3 -8.4,3.7 -12,23.2 13,23.5 40.3,25.8 70.1,30 19.4,7.4 62.9,24.5 51.5,22.4 31.6,16.5 4.2,3.2 11.1,22.1 17.2,47.9 21.3,67.3 23.1,80.2 6.5,23.8 43.5,150.3 41.8,120.1 41.7,92.7 43.1,68.3 46.4,46.7 51.1,28.1 20.3,6.3 68.4,1.1 72.3,-26.2 67.9,-49.9 21.1,-22.5 59.5,-69.5 66.9,69.7 72.6,65.5 72.2,40.5 83.8,21.3 45.1,4.9 62,2.5 42.9,-6.1 37.7,-17.5 16.5,-10.6 50.5,-50.4 35.9,-73.7 21.7,-98.5 7.6,-124.7 -6.4,-152.5 -17.5,-163 -11.4,-98.9 -2.8,-72.2 7.1,-51.5 18.5,-36.5 31.5,-27.6 34,-18.8 57.1,-17.7 54.5,7.2 58.2,34.2 45.6,40.3 37.6,33.6 24.7,12.1 20.5,-5.8 5,-3.4 18.7,-17.6 -2.5,-19.3 -15,-23.3 -43.1,-44.7 -60,-42 -64.9,-32.5 -57.7,-16 -10.7,-0.6 z"/><g style="fill:#008400;fill-opacity:1;stroke:#008400;stroke-width:0;stroke-linecap:round;stroke-linejoin:round;stroke-opacity:1" id="g10596"><circle id="circle10594" cx="61165.398" cy="37413.398" r="590.551"/></g><g style="fill:#008400;fill-opacity:1;stroke:#008400;stroke-width:0;stroke-linecap:round;stroke-linejoin:round;stroke-opacity:1" id="g10620"><path style="fill:#008400;fill-opacity:1;fill-rule:evenodd;stroke:#008400;stroke-width:0;stroke-linecap:round;stroke-linejoin:round;stroke-opacity:1" id="path10608" d="m 61988.2,41523.6 h 393.7 v 1240.2 h -393.7 z"/><path style="fill:#008400;fill-opacity:1;fill-rule:evenodd;stroke:#008400;stroke-width:0;stroke-linecap:round;stroke-linejoin:round;stroke-opacity:1" id="path10610" d="m 61988.2,39535.4 h 393.7 v 1240.2 h -393.7 z"/><path style="fill:#008400;fill-opacity:1;fill-rule:evenodd;stroke:#008400;stroke-width:0;stroke-linecap:round;stroke-linejoin:round;stroke-opacity:1" id="path10612" d="m 60988.2,41523.6 h 393.7 v 1240.2 h -393.7 z"/><path style="fill:#008400;fill-opacity:1;fill-rule:evenodd;stroke:#008400;stroke-width:0;stroke-linecap:round;stroke-linejoin:round;stroke-opacity:1" id="path10614" d="m 60988.2,39535.4 h 393.7 v 1240.2 h -393.7 z"/><path style="fill:#008400;fill-opacity:1;fill-rule:evenodd;stroke:#008400;stroke-width:0;stroke-linecap:round;stroke-linejoin:round;stroke-opacity:1" id="path10616" d="m 59988.2,41523.6 h 393.7 v 1240.2 h -393.7 z"/><path style="fill:#008400;fill-opacity:1;fill-rule:evenodd;stroke:#008400;stroke-width:0;stroke-linecap:round;stroke-linejoin:round;stroke-opacity:1" id="path10618" d="m 59988.2,39535.4 h 393.7 v 1240.2 h -393.7 z"/></g></g><g style="fill:#c2c200;fill-opacity:0;stroke:#c2c200;stroke-width:39.37009811;stroke-linecap:round;stroke-linejoin:round;stroke-opacity:1" id="g11140" transform="translate(-52213.759,-26066.317)"><path id="path10644" d="m 61234,31589 -155,3"/><path id="path10646" d="m 61079,31592 -151,12"/><path id="path10648" d="m 60928,31604 -146,20"/><path id="path10650" d="m 60782,31624 -141,27"/><path id="path10652" d="m 60641,31651 -136,34"/><path id="path10654" d="m 60505,31685 -130,42"/><path id="path10656" d="m 60375,31727 -125,50"/><path id="path10658" d="m 60250,31777 -119,56"/><path id="path10660" d="m 60131,31833 -112,63"/><path id="path10662" d="m 60019,31896 -107,71"/><path id="path10664" d="m 59912,31967 -100,77"/><path id="path10666" d="m 59812,32044 -93,84"/><path id="path10668" d="m 59719,32128 -86,90"/><path id="path10670" d="m 59633,32218 -79,97"/><path id="path10672" d="m 59554,32315 -71,103"/><path id="path10674" d="m 59483,32418 -64,109"/><path id="path10676" d="m 59419,32527 -51,105"/><path id="path10678" d="m 59368,32632 -42,106"/><path id="path10680" d="m 59326,32738 -32,122"/><path id="path10682" d="m 59294,32860 -25,151"/><path id="path10684" d="m 59269,33011 -20,193"/><path id="path10686" d="m 59249,33204 -16,249"/><path id="path10688" d="m 59233,33453 -29,722"/><path id="path10690" d="m 59204,34175 -20,517"/><path id="path10692" d="m 59184,34692 -25,403"/><path id="path10694" d="m 59159,35095 -18,168"/><path id="path10696" d="m 59141,35263 -24,151"/><path id="path10698" d="m 59117,35414 -29,137"/><path id="path10700" d="m 59088,35551 -38,126"/><path id="path10702" d="m 59050,35677 -46,120"/><path id="path10704" d="m 59004,35797 -57,118"/><path id="path10706" d="m 58947,35915 -68,117"/><path id="path10708" d="m 58879,36032 -81,123"/><path id="path10710" d="m 58798,36155 -204,272"/><path id="path10712" d="m 58594,36427 -270,333"/><path id="path10714" d="m 58324,36760 -159,200"/><path id="path10716" d="m 58165,36960 -149,197"/><path id="path10718" d="m 58016,37157 -140,195"/><path id="path10720" d="m 57876,37352 -131,192"/><path id="path10722" d="m 57745,37544 -120,190"/><path id="path10724" d="m 57625,37734 -111,186"/><path id="path10726" d="m 57514,37920 -100,184"/><path id="path10728" d="m 57414,38104 -90,180"/><path id="path10730" d="m 57324,38284 -81,176"/><path id="path10732" d="m 57243,38460 -69,173"/><path id="path10734" d="m 57174,38633 -60,169"/><path id="path10736" d="m 57114,38802 -49,164"/><path id="path10738" d="m 57065,38966 -38,160"/><path id="path10740" d="m 57027,39126 -28,156"/><path id="path10742" d="m 56999,39282 -16,151"/><path id="path10744" d="m 56983,39433 -6,145"/><path id="path10746" d="m 56977,39578 -5,88"/><path id="path10748" d="m 56972,39666 -13,86"/><path id="path10750" d="m 56959,39752 -21,86"/><path id="path10752" d="m 56938,39838 -29,84"/><path id="path10754" d="m 56909,39922 -35,83"/><path id="path10756" d="m 56874,40005 -42,79"/><path id="path10758" d="m 56832,40084 -49,76"/><path id="path10760" d="m 56783,40160 -54,72"/><path id="path10762" d="m 56729,40232 -60,68"/><path id="path10764" d="m 56669,40300 -64,63"/><path id="path10766" d="m 56605,40363 -69,58"/><path id="path10768" d="m 56536,40421 -73,51"/><path id="path10770" d="m 56463,40472 -76,45"/><path id="path10772" d="m 56387,40517 -80,38"/><path id="path10774" d="m 56307,40555 -82,30"/><path id="path10776" d="m 56225,40585 -84,22"/><path id="path10778" d="m 56141,40607 -94,34"/><path id="path10780" d="m 56047,40641 -107,59"/><path id="path10782" d="m 55940,40700 -106,77"/><path id="path10784" d="m 55834,40777 -93,86"/><path id="path10786" d="m 55741,40863 -60,68"/><path id="path10788" d="m 55681,40931 -46,61"/><path id="path10790" d="m 55635,40992 -33,59"/><path id="path10792" d="m 55602,41051 -21,62"/><path id="path10794" d="m 55581,41113 -11,73"/><path id="path10796" d="m 55570,41186 -2,88"/><path id="path10798" d="m 55568,41274 16,248"/><path id="path10800" d="m 55584,41522 10,194"/><path id="path10802" d="m 55594,41716 -5,201"/><path id="path10804" d="m 55589,41917 -17,183"/><path id="path10806" d="m 55572,42100 -28,143"/><path id="path10808" d="m 55544,42243 -29,126"/><path id="path10810" d="m 55515,42369 -14,118"/><path id="path10812" d="m 55501,42487 2,109"/><path id="path10814" d="m 55503,42596 17,100"/><path id="path10816" d="m 55520,42696 33,89"/><path id="path10818" d="m 55553,42785 48,80"/><path id="path10820" d="m 55601,42865 64,68"/><path id="path10822" d="m 55665,42933 78,58"/><path id="path10824" d="m 55743,42991 51,23"/><path id="path10826" d="m 55794,43014 74,26"/><path id="path10828" d="m 55868,43040 207,55"/><path id="path10830" d="m 56075,43095 261,53"/><path id="path10832" d="m 56336,43148 286,46"/><path id="path10834" d="m 56622,43194 307,51"/><path id="path10836" d="m 56929,43245 312,69"/><path id="path10838" d="m 57241,43314 283,76"/><path id="path10840" d="m 57524,43390 219,77"/><path id="path10842" d="m 57743,43467 151,58"/><path id="path10844" d="m 57894,43525 151,49"/><path id="path10846" d="m 58045,43574 150,40"/><path id="path10848" d="m 58195,43614 148,31"/><path id="path10850" d="m 58343,43645 146,22"/><path id="path10852" d="m 58489,43667 143,13"/><path id="path10854" d="m 58632,43680 138,4"/><path id="path10856" d="m 58770,43684 133,-5"/><path id="path10858" d="m 58903,43679 127,-14"/><path id="path10860" d="m 59030,43665 121,-22"/><path id="path10862" d="m 59151,43643 113,-31"/><path id="path10864" d="m 59264,43612 104,-40"/><path id="path10866" d="m 59368,43572 95,-48"/><path id="path10868" d="m 59463,43524 85,-57"/><path id="path10870" d="m 59548,43467 74,-65"/><path id="path10872" d="m 59622,43402 62,-74"/><path id="path10874" d="m 59684,43328 40,-40"/><path id="path10876" d="m 59724,43288 59,-38"/><path id="path10878" d="m 59783,43250 76,-36"/><path id="path10880" d="m 59859,43214 92,-32"/><path id="path10882" d="m 59951,43182 107,-29"/><path id="path10884" d="m 60058,43153 120,-26"/><path id="path10886" d="m 60178,43127 273,-41"/><path id="path10888" d="m 60451,43086 308,-25"/><path id="path10890" d="m 60759,43061 331,-9"/><path id="path10892" d="m 61090,43052 343,9"/><path id="path10894" d="m 61433,43061 343,28"/><path id="path10896" d="m 61776,43089 261,34"/><path id="path10898" d="m 62037,43123 218,37"/><path id="path10900" d="m 62255,43160 151,36"/><path id="path10902" d="m 62406,43196 43,16"/><path id="path10904" d="m 62449,43212 18,14"/><path id="path10906" d="m 62467,43226 34,65"/><path id="path10908" d="m 62501,43291 52,72"/><path id="path10910" d="m 62553,43363 67,76"/><path id="path10912" d="m 62620,43439 77,75"/><path id="path10914" d="m 62697,43514 83,71"/><path id="path10916" d="m 62780,43585 86,64"/><path id="path10918" d="m 62866,43649 86,53"/><path id="path10920" d="m 62952,43702 81,39"/><path id="path10922" d="m 63033,43741 102,36"/><path id="path10924" d="m 63135,43777 103,28"/><path id="path10926" d="m 63238,43805 104,18"/><path id="path10928" d="m 63342,43823 104,9"/><path id="path10930" d="m 63446,43832 h 106"/><path id="path10932" d="m 63552,43832 106,-9"/><path id="path10934" d="m 63658,43823 107,-17"/><path id="path10936" d="m 63765,43806 109,-28"/><path id="path10938" d="m 63874,43778 110,-36"/><path id="path10940" d="m 63984,43742 111,-45"/><path id="path10942" d="m 64095,43697 112,-54"/><path id="path10944" d="m 64207,43643 114,-64"/><path id="path10946" d="m 64321,43579 115,-73"/><path id="path10948" d="m 64436,43506 117,-82"/><path id="path10950" d="m 64553,43424 118,-91"/><path id="path10952" d="m 64671,43333 120,-101"/><path id="path10954" d="m 64791,43232 204,-159"/><path id="path10956" d="m 64995,43073 255,-174"/><path id="path10958" d="m 65250,42899 273,-167"/><path id="path10960" d="m 65523,42732 260,-139"/><path id="path10962" d="m 65783,42593 290,-150"/><path id="path10964" d="m 66073,42443 119,-70"/><path id="path10966" d="m 66192,42373 101,-68"/><path id="path10968" d="m 66293,42305 84,-65"/><path id="path10970" d="m 66377,42240 67,-66"/><path id="path10972" d="m 66444,42174 51,-65"/><path id="path10974" d="m 66495,42109 35,-67"/><path id="path10976" d="m 66530,42042 19,-68"/><path id="path10978" d="m 66549,41974 4,-72"/><path id="path10980" d="m 66553,41902 -11,-75"/><path id="path10982" d="m 66542,41827 -25,-81"/><path id="path10984" d="m 66517,41746 -40,-86"/><path id="path10986" d="m 66477,41660 -53,-92"/><path id="path10988" d="m 66424,41568 -67,-100"/><path id="path10990" d="m 66357,41468 -80,-109"/><path id="path10992" d="m 66277,41359 -92,-138"/><path id="path10994" d="m 66185,41221 -93,-172"/><path id="path10996" d="m 66092,41049 -83,-183"/><path id="path10998" d="m 66009,40866 -63,-172"/><path id="path11000" d="m 65946,40694 -57,-158"/><path id="path11002" d="m 65889,40536 -65,-142"/><path id="path11004" d="m 65824,40394 -67,-112"/><path id="path11006" d="m 65757,40282 -31,-39"/><path id="path11008" d="m 65726,40243 -29,-26"/><path id="path11010" d="m 65697,40217 -37,-31"/><path id="path11012" d="m 65660,40186 -29,-42"/><path id="path11014" d="m 65631,40144 -23,-57"/><path id="path11016" d="m 65608,40087 -17,-79"/><path id="path11018" d="m 65591,40008 -11,-104"/><path id="path11020" d="m 65580,39904 -7,-136"/><path id="path11022" d="m 65573,39768 -5,-388"/><path id="path11024" d="m 65568,39380 -6,-408"/><path id="path11026" d="m 65562,38972 -11,-153"/><path id="path11028" d="m 65551,38819 -16,-132"/><path id="path11030" d="m 65535,38687 -25,-119"/><path id="path11032" d="m 65510,38568 -35,-114"/><path id="path11034" d="m 65475,38454 -46,-118"/><path id="path11036" d="m 65429,38336 -58,-131"/><path id="path11038" d="m 65371,38205 -103,-214"/><path id="path11040" d="m 65268,37991 -110,-206"/><path id="path11042" d="m 65158,37785 -121,-204"/><path id="path11044" d="m 65037,37581 -135,-206"/><path id="path11046" d="m 64902,37375 -150,-211"/><path id="path11048" d="m 64752,37164 -170,-223"/><path id="path11050" d="m 64582,36941 -193,-237"/><path id="path11052" d="m 64389,36704 -218,-257"/><path id="path11054" d="m 64171,36447 -253,-299"/><path id="path11056" d="m 63918,36148 -196,-252"/><path id="path11058" d="m 63722,35896 -79,-114"/><path id="path11060" d="m 63643,35782 -67,-111"/><path id="path11062" d="m 63576,35671 -58,-109"/><path id="path11064" d="m 63518,35562 -48,-111"/><path id="path11066" d="m 63470,35451 -39,-116"/><path id="path11068" d="m 63431,35335 -33,-122"/><path id="path11070" d="m 63398,35213 -27,-133"/><path id="path11072" d="m 63371,35080 -21,-145"/><path id="path11074" d="m 63350,34935 -33,-339"/><path id="path11076" d="m 63317,34596 -26,-421"/><path id="path11078" d="m 63291,34175 -27,-426"/><path id="path11080" d="m 63264,33749 -32,-380"/><path id="path11082" d="m 63232,33369 -34,-292"/><path id="path11084" d="m 63198,33077 -17,-100"/><path id="path11086" d="m 63181,32977 -15,-63"/><path id="path11088" d="m 63166,32914 -61,-164"/><path id="path11090" d="m 63105,32750 -69,-152"/><path id="path11092" d="m 63036,32598 -76,-141"/><path id="path11094" d="m 62960,32457 -83,-131"/><path id="path11096" d="m 62877,32326 -92,-119"/><path id="path11098" d="m 62785,32207 -99,-109"/><path id="path11100" d="m 62686,32098 -107,-97"/><path id="path11102" d="m 62579,32001 -116,-88"/><path id="path11104" d="m 62463,31913 -124,-76"/><path id="path11106" d="m 62339,31837 -132,-67"/><path id="path11108" d="m 62207,31770 -140,-56"/><path id="path11110" d="m 62067,31714 -149,-45"/><path id="path11112" d="m 61918,31669 -158,-35"/><path id="path11114" d="m 61760,31634 -166,-25"/><path id="path11116" d="m 61594,31609 -176,-15"/><path id="path11118" d="m 61418,31594 -184,-5"/><path id="path11120" d="m 61234,31589 v 0"/><path id="path11122" d="m 61234,31589 v 0"/></g><g id="g19730" transform="translate(-23419.176,-30757.812)"><g id="g18539" style="fill:#008400;fill-opacity:1;stroke:#008400;stroke-width:3.93701005;stroke-linecap:round;stroke-linejoin:round;stroke-opacity:1"><path id="path18513" d="m 51142,46046.9 -72.1,36.3 -53.5,52.7 -2.9,4.4 -15.2,27.6 -8.5,29.4 -2.5,39.7 2.6,58.5 4.2,54.5 5.4,82 4.4,101.5 2.9,107.4 1.1,87.1 -0.3,91.3 -1.9,64.6 -4.4,44.3 -7.7,30.7 -11.8,23.6 -8.5,12.1 -33.8,33.5 -44.7,15.6 -28.7,3.2 -97.6,-7.5 -89.6,-38.3 -84.2,-70.1 -21.6,-24 -41.2,-44.7 -35.5,-32.3 -22.4,-13.3 h -0.8 l -21.9,13 -28.9,32.9 -12.8,18.7 -58,75 -59,45 -58.1,14.1 -54.8,-17.4 -37.2,-33.3 -31.7,-42.9 -27.7,-50.4 -26.4,-64.6 -28.1,-85.7 -23.1,-79.4 -23.4,-83 -24.5,-86.4 -21.1,-74.1 -4.3,-15 -31.2,-108.4 -168.5,-64.3 -85.9,-31 -58.4,-16.6 -33.5,-3 -8.3,3.7 -12,23.2 12.9,23.5 40.4,25.8 70.1,30.1 19.4,7.3 62.9,24.5 51.5,22.4 31.5,16.5 4.3,3.2 11.1,22.1 17.2,47.9 21.2,67.3 23.2,80.2 6.5,23.8 43.5,150.3 41.8,120.1 41.6,92.7 43.2,68.3 46.3,46.7 51.2,28.1 20.3,6.3 68.3,1.1 72.4,-26.2 67.8,-49.9 21.2,-22.5 59.5,-69.4 66.9,69.6 72.6,65.6 72.2,40.5 83.8,21.2 45,4.9 62,2.5 43,-6.1 37.6,-17.5 16.5,-10.6 50.5,-50.4 36,-73.7 21.7,-98.5 7.5,-124.7 -6.3,-152.5 -17.6,-163 -11.3,-98.9 -2.9,-72.2 7.2,-51.5 18.5,-36.5 31.5,-27.6 34,-18.8 57.1,-17.7 54.5,7.2 58.1,34.2 45.7,40.3 37.6,33.6 24.6,12.1 20.6,-5.8 5,-3.4 18.7,-17.6 -2.5,-19.3 -15,-23.3 -43.1,-44.7 -60.1,-42 -64.9,-32.5 -57.7,-16 -10.6,-0.6 z" style="fill:#008400;fill-opacity:1;fill-rule:evenodd;stroke:#008400;stroke-width:3.93701005;stroke-linecap:round;stroke-linejoin:round;stroke-opacity:1"/><g id="g18523" style="fill:#008400;fill-opacity:1;stroke:#008400;stroke-width:0;stroke-linecap:round;stroke-linejoin:round;stroke-opacity:1"><circle id="circle18521" cx="50500" cy="40500" r="590.551"/></g></g><g id="g18957" style="fill:#c2c200;fill-opacity:0;stroke:#c2c200;stroke-width:39.37009811;stroke-linecap:round;stroke-linejoin:round;stroke-opacity:1"><path id="path18547" d="m 47266,39157 -449,2"/><path id="path18549" d="m 46817,39159 -245,8"/><path id="path18551" d="m 46572,39167 -253,22"/><path id="path18553" d="m 46319,39189 -257,41"/><path id="path18555" d="m 46062,39230 -128,30"/><path id="path18557" d="m 45934,39260 -127,37"/><path id="path18559" d="m 45807,39297 -126,45"/><path id="path18561" d="m 45681,39342 -124,53"/><path id="path18563" d="m 45557,39395 -121,63"/><path id="path18565" d="m 45436,39458 -119,74"/><path id="path18567" d="m 45317,39532 -115,84"/><path id="path18569" d="m 45202,39616 -110,96"/><path id="path18571" d="m 45092,39712 -107,109"/><path id="path18573" d="m 44985,39821 -101,122"/><path id="path18575" d="m 44884,39943 -95,136"/><path id="path18577" d="m 44789,40079 -89,151"/><path id="path18579" d="m 44700,40230 -82,167"/><path id="path18581" d="m 44618,40397 -74,183"/><path id="path18583" d="m 44544,40580 -67,200"/><path id="path18585" d="m 44477,40780 -58,219"/><path id="path18587" d="m 44419,40999 -49,237"/><path id="path18589" d="m 44370,41236 -39,256"/><path id="path18591" d="m 44331,41492 -29,277"/><path id="path18593" d="m 44302,41769 -19,297"/><path id="path18595" d="m 44283,42066 -7,320"/><path id="path18597" d="m 44276,42386 5,342"/><path id="path18599" d="m 44281,42728 24,256"/><path id="path18601" d="m 44305,42984 40,254"/><path id="path18603" d="m 44345,43238 68,335"/><path id="path18605" d="m 44413,43573 76,324"/><path id="path18607" d="m 44489,43897 64,223"/><path id="path18609" d="m 44553,44120 84,209"/><path id="path18611" d="m 44637,44329 93,190"/><path id="path18613" d="m 44730,44519 103,173"/><path id="path18615" d="m 44833,44692 113,154"/><path id="path18617" d="m 44946,44846 123,136"/><path id="path18619" d="m 45069,44982 132,118"/><path id="path18621" d="m 45201,45100 142,99"/><path id="path18623" d="m 45343,45199 152,82"/><path id="path18625" d="m 45495,45281 105,46"/><path id="path18627" d="m 45600,45327 95,37"/><path id="path18629" d="m 45695,45364 95,27"/><path id="path18631" d="m 45790,45391 105,20"/><path id="path18633" d="m 45895,45411 123,15"/><path id="path18635" d="m 46018,45426 153,9"/><path id="path18637" d="m 46171,45435 431,12"/><path id="path18639" d="m 46602,45447 656,11"/><path id="path18641" d="m 47258,45458 2,247"/><path id="path18643" d="m 47260,45705 7,453"/><path id="path18645" d="m 47267,46158 11,363"/><path id="path18647" d="m 47278,46521 14,259"/><path id="path18649" d="m 47292,46780 18,145"/><path id="path18651" d="m 47310,46925 25,89"/><path id="path18653" d="m 47335,47014 31,88"/><path id="path18655" d="m 47366,47102 37,86"/><path id="path18657" d="m 47403,47188 44,85"/><path id="path18659" d="m 47447,47273 49,83"/><path id="path18661" d="m 47496,47356 56,81"/><path id="path18663" d="m 47552,47437 127,154"/><path id="path18665" d="m 47679,47591 150,144"/><path id="path18667" d="m 47829,47735 170,132"/><path id="path18669" d="m 47999,47867 189,120"/><path id="path18671" d="m 48188,47987 207,105"/><path id="path18673" d="m 48395,48092 147,61"/><path id="path18675" d="m 48542,48153 164,59"/><path id="path18677" d="m 48706,48212 179,56"/><path id="path18679" d="m 48885,48268 190,52"/><path id="path18681" d="m 49075,48320 195,47"/><path id="path18683" d="m 49270,48367 197,42"/><path id="path18685" d="m 49467,48409 196,34"/><path id="path18687" d="m 49663,48443 189,25"/><path id="path18689" d="m 49852,48468 v 0"/><path id="path18691" d="m 49852,48468 243,20"/><path id="path18693" d="m 50095,48488 258,4"/><path id="path18695" d="m 50353,48492 268,-11"/><path id="path18697" d="m 50621,48481 274,-24"/><path id="path18699" d="m 50895,48457 276,-38"/><path id="path18701" d="m 51171,48419 274,-52"/><path id="path18703" d="m 51445,48367 267,-64"/><path id="path18705" d="m 51712,48303 255,-76"/><path id="path18707" d="m 51967,48227 148,-52"/><path id="path18709" d="m 52115,48175 140,-56"/><path id="path18711" d="m 52255,48119 133,-59"/><path id="path18713" d="m 52388,48060 124,-63"/><path id="path18715" d="m 52512,47997 117,-66"/><path id="path18717" d="m 52629,47931 109,-70"/><path id="path18719" d="m 52738,47861 101,-73"/><path id="path18721" d="m 52839,47788 93,-77"/><path id="path18723" d="m 52932,47711 85,-80"/><path id="path18725" d="m 53017,47631 78,-85"/><path id="path18727" d="m 53095,47546 70,-87"/><path id="path18729" d="m 53165,47459 62,-92"/><path id="path18731" d="m 53227,47367 54,-94"/><path id="path18733" d="m 53281,47273 47,-99"/><path id="path18735" d="m 53328,47174 39,-102"/><path id="path18737" d="m 53367,47072 31,-106"/><path id="path18739" d="m 53398,46966 22,-163"/><path id="path18741" d="m 53420,46803 18,-284"/><path id="path18743" d="m 53438,46519 13,-382"/><path id="path18745" d="m 53451,46137 7,-457"/><path id="path18747" d="m 53458,45680 1,-222"/><path id="path18749" d="m 53459,45458 705,-12"/><path id="path18751" d="m 54164,45446 375,-7"/><path id="path18753" d="m 54539,45439 234,-10"/><path id="path18755" d="m 54773,45429 142,-16"/><path id="path18757" d="m 54915,45413 101,-26"/><path id="path18759" d="m 55016,45387 163,-63"/><path id="path18761" d="m 55179,45324 152,-78"/><path id="path18763" d="m 55331,45246 139,-93"/><path id="path18765" d="m 55470,45153 129,-111"/><path id="path18767" d="m 55599,45042 119,-128"/><path id="path18769" d="m 55718,44914 110,-145"/><path id="path18771" d="m 55828,44769 101,-166"/><path id="path18773" d="m 55929,44603 94,-184"/><path id="path18775" d="m 56023,44419 102,-246"/><path id="path18777" d="m 56125,44173 103,-296"/><path id="path18779" d="m 56228,43877 93,-311"/><path id="path18781" d="m 56321,43566 71,-290"/><path id="path18783" d="m 56392,43276 36,-187"/><path id="path18785" d="m 56428,43089 20,-163"/><path id="path18787" d="m 56448,42926 8,-201"/><path id="path18789" d="m 56456,42725 v -301"/><path id="path18791" d="m 56456,42424 -12,-397"/><path id="path18793" d="m 56444,42027 -11,-138"/><path id="path18795" d="m 56433,41889 -10,-73"/><path id="path18797" d="m 56423,41816 -43,-269"/><path id="path18799" d="m 56380,41547 -46,-248"/><path id="path18801" d="m 56334,41299 -48,-227"/><path id="path18803" d="m 56286,41072 -51,-207"/><path id="path18805" d="m 56235,40865 -54,-189"/><path id="path18807" d="m 56181,40676 -56,-171"/><path id="path18809" d="m 56125,40505 -58,-154"/><path id="path18811" d="m 56067,40351 -59,-140"/><path id="path18813" d="m 56008,40211 -62,-125"/><path id="path18815" d="m 55946,40086 -63,-112"/><path id="path18817" d="m 55883,39974 -64,-101"/><path id="path18819" d="m 55819,39873 -66,-90"/><path id="path18821" d="m 55753,39783 -67,-80"/><path id="path18823" d="m 55686,39703 -67,-71"/><path id="path18825" d="m 55619,39632 -138,-122"/><path id="path18827" d="m 55481,39510 v 0"/><path id="path18829" d="m 55481,39510 -119,-86"/><path id="path18831" d="m 55362,39424 -111,-65"/><path id="path18833" d="m 55251,39359 -103,-46"/><path id="path18835" d="m 55148,39313 -99,-31"/><path id="path18837" d="m 55049,39282 -96,-19"/><path id="path18839" d="m 54953,39263 -95,-11"/><path id="path18841" d="m 54858,39252 -198,-9"/><path id="path18843" d="m 54660,39243 -1228,-7"/><path id="path18845" d="m 53432,39236 -3,-1299"/><path id="path18847" d="m 53429,37937 -6,-206"/><path id="path18849" d="m 53423,37731 -14,-89"/><path id="path18851" d="m 53409,37642 -20,-78"/><path id="path18853" d="m 53389,37564 -25,-70"/><path id="path18855" d="m 53364,37494 -28,-61"/><path id="path18857" d="m 53336,37433 -64,-105"/><path id="path18859" d="m 53272,37328 -64,-89"/><path id="path18861" d="m 53208,37239 -60,-86"/><path id="path18863" d="m 53148,37153 -72,-89"/><path id="path18865" d="m 53076,37064 -88,-92"/><path id="path18867" d="m 52988,36972 -109,-95"/><path id="path18869" d="m 52879,36877 -133,-98"/><path id="path18871" d="m 52746,36779 -161,-100"/><path id="path18873" d="m 52585,36679 -193,-102"/><path id="path18875" d="m 52392,36577 -229,-104"/><path id="path18877" d="m 52163,36473 -137,-42"/><path id="path18879" d="m 52026,36431 -176,-36"/><path id="path18881" d="m 51850,36395 -211,-30"/><path id="path18883" d="m 51639,36365 -240,-23"/><path id="path18885" d="m 51399,36342 -264,-17"/><path id="path18887" d="m 51135,36325 -284,-10"/><path id="path18889" d="m 50851,36315 -297,-3"/><path id="path18891" d="m 50554,36312 -307,4"/><path id="path18893" d="m 50247,36316 -310,10"/><path id="path18895" d="m 49937,36326 -309,18"/><path id="path18897" d="m 49628,36344 -302,26"/><path id="path18899" d="m 49326,36370 -290,33"/><path id="path18901" d="m 49036,36403 -274,40"/><path id="path18903" d="m 48762,36443 -252,48"/><path id="path18905" d="m 48510,36491 -225,57"/><path id="path18907" d="m 48285,36548 -193,64"/><path id="path18909" d="m 48092,36612 -97,46"/><path id="path18911" d="m 47995,36658 -89,48"/><path id="path18913" d="m 47906,36706 -82,52"/><path id="path18915" d="m 47824,36758 -74,54"/><path id="path18917" d="m 47750,36812 -68,58"/><path id="path18919" d="m 47682,36870 -62,60"/><path id="path18921" d="m 47620,36930 -55,62"/><path id="path18923" d="m 47565,36992 -50,65"/><path id="path18925" d="m 47515,37057 -83,137"/><path id="path18927" d="m 47432,37194 -64,146"/><path id="path18929" d="m 47368,37340 -47,154"/><path id="path18931" d="m 47321,37494 -32,163"/><path id="path18933" d="m 47289,37657 -20,169"/><path id="path18935" d="m 47269,37826 -10,176"/><path id="path18937" d="m 47259,38002 -1,368"/><path id="path18939" d="m 47258,38370 9,387"/><path id="path18941" d="m 47267,38757 -1,400"/><path id="path18943" d="m 47266,39157 v 0"/></g></g><circle style="fill:none;fill-opacity:0;stroke:#f90000;stroke-width:39.37011182;stroke-miterlimit:4;stroke-dasharray:none;stroke-opacity:1" id="path20426" cx="8949.696" cy="11352.068" r="533.798"/><circle id="circle20428" cx="27088.369" cy="9745.335" r="533.798" style="fill:none;fill-opacity:0;stroke:red;stroke-width:39.37011337;stroke-miterlimit:4;stroke-dasharray:none;stroke-opacity:1"/></svg>