<svg xmlns="http://www.w3.org/2000/svg" xmlns:svg="http://www.w3.org/2000/svg" id="svg1038" width="338.473" height="228.003" version="1.1" viewBox="0 0 35257.612 23750.333"><metadata id="metadata1044"/><title id="title2">SVG Picture created as Python-Edge_Cuts.svg date 2020/06/14 09:49:41</title><desc id="desc4">Picture generated by PCBNEW</desc><g style="fill:none;fill-opacity:0;stroke:red;stroke-width:39.37009811;stroke-linecap:round;stroke-linejoin:round;stroke-opacity:1" id="g1036" transform="matrix(1.0064365,0,0,1.0064367,-23837.194,-31122.56)"><path id="path626" d="m 47266,39157 -449,2" style="fill:none;fill-opacity:0;stroke:red;stroke-opacity:1"/><path id="path628" d="m 46817,39159 -245,8" style="fill:none;fill-opacity:0;stroke:red;stroke-opacity:1"/><path id="path630" d="m 46572,39167 -253,22" style="fill:none;fill-opacity:0;stroke:red;stroke-opacity:1"/><path id="path632" d="m 46319,39189 -257,41" style="fill:none;fill-opacity:0;stroke:red;stroke-opacity:1"/><path id="path634" d="m 46062,39230 -128,30" style="fill:none;fill-opacity:0;stroke:red;stroke-opacity:1"/><path id="path636" d="m 45934,39260 -127,37" style="fill:none;fill-opacity:0;stroke:red;stroke-opacity:1"/><path id="path638" d="m 45807,39297 -126,45" style="fill:none;fill-opacity:0;stroke:red;stroke-opacity:1"/><path id="path640" d="m 45681,39342 -124,53" style="fill:none;fill-opacity:0;stroke:red;stroke-opacity:1"/><path id="path642" d="m 45557,39395 -121,63" style="fill:none;fill-opacity:0;stroke:red;stroke-opacity:1"/><path id="path644" d="m 45436,39458 -119,74" style="fill:none;fill-opacity:0;stroke:red;stroke-opacity:1"/><path id="path646" d="m 45317,39532 -115,84" style="fill:none;fill-opacity:0;stroke:red;stroke-opacity:1"/><path id="path648" d="m 45202,39616 -110,96" style="fill:none;fill-opacity:0;stroke:red;stroke-opacity:1"/><path id="path650" d="m 45092,39712 -107,109" style="fill:none;fill-opacity:0;stroke:red;stroke-opacity:1"/><path id="path652" d="m 44985,39821 -101,122" style="fill:none;fill-opacity:0;stroke:red;stroke-opacity:1"/><path id="path654" d="m 44884,39943 -95,136" style="fill:none;fill-opacity:0;stroke:red;stroke-opacity:1"/><path id="path656" d="m 44789,40079 -89,151" style="fill:none;fill-opacity:0;stroke:red;stroke-opacity:1"/><path id="path658" d="m 44700,40230 -82,167" style="fill:none;fill-opacity:0;stroke:red;stroke-opacity:1"/><path id="path660" d="m 44618,40397 -74,183" style="fill:none;fill-opacity:0;stroke:red;stroke-opacity:1"/><path id="path662" d="m 44544,40580 -67,200" style="fill:none;fill-opacity:0;stroke:red;stroke-opacity:1"/><path id="path664" d="m 44477,40780 -58,219" style="fill:none;fill-opacity:0;stroke:red;stroke-opacity:1"/><path id="path666" d="m 44419,40999 -49,237" style="fill:none;fill-opacity:0;stroke:red;stroke-opacity:1"/><path id="path668" d="m 44370,41236 -39,256" style="fill:none;fill-opacity:0;stroke:red;stroke-opacity:1"/><path id="path670" d="m 44331,41492 -29,277" style="fill:none;fill-opacity:0;stroke:red;stroke-opacity:1"/><path id="path672" d="m 44302,41769 -19,297" style="fill:none;fill-opacity:0;stroke:red;stroke-opacity:1"/><path id="path674" d="m 44283,42066 -7,320" style="fill:none;fill-opacity:0;stroke:red;stroke-opacity:1"/><path id="path676" d="m 44276,42386 5,342" style="fill:none;fill-opacity:0;stroke:red;stroke-opacity:1"/><path id="path678" d="m 44281,42728 24,256" style="fill:none;fill-opacity:0;stroke:red;stroke-opacity:1"/><path id="path680" d="m 44305,42984 40,254" style="fill:none;fill-opacity:0;stroke:red;stroke-opacity:1"/><path id="path682" d="m 44345,43238 68,335" style="fill:none;fill-opacity:0;stroke:red;stroke-opacity:1"/><path id="path684" d="m 44413,43573 76,324" style="fill:none;fill-opacity:0;stroke:red;stroke-opacity:1"/><path id="path686" d="m 44489,43897 64,223" style="fill:none;fill-opacity:0;stroke:red;stroke-opacity:1"/><path id="path688" d="m 44553,44120 84,209" style="fill:none;fill-opacity:0;stroke:red;stroke-opacity:1"/><path id="path690" d="m 44637,44329 93,190" style="fill:none;fill-opacity:0;stroke:red;stroke-opacity:1"/><path id="path692" d="m 44730,44519 103,173" style="fill:none;fill-opacity:0;stroke:red;stroke-opacity:1"/><path id="path694" d="m 44833,44692 113,154" style="fill:none;fill-opacity:0;stroke:red;stroke-opacity:1"/><path id="path696" d="m 44946,44846 123,136" style="fill:none;fill-opacity:0;stroke:red;stroke-opacity:1"/><path id="path698" d="m 45069,44982 132,118" style="fill:none;fill-opacity:0;stroke:red;stroke-opacity:1"/><path id="path700" d="m 45201,45100 142,99" style="fill:none;fill-opacity:0;stroke:red;stroke-opacity:1"/><path id="path702" d="m 45343,45199 152,82" style="fill:none;fill-opacity:0;stroke:red;stroke-opacity:1"/><path id="path704" d="m 45495,45281 105,46" style="fill:none;fill-opacity:0;stroke:red;stroke-opacity:1"/><path id="path706" d="m 45600,45327 95,37" style="fill:none;fill-opacity:0;stroke:red;stroke-opacity:1"/><path id="path708" d="m 45695,45364 95,27" style="fill:none;fill-opacity:0;stroke:red;stroke-opacity:1"/><path id="path710" d="m 45790,45391 105,20" style="fill:none;fill-opacity:0;stroke:red;stroke-opacity:1"/><path id="path712" d="m 45895,45411 123,15" style="fill:none;fill-opacity:0;stroke:red;stroke-opacity:1"/><path id="path714" d="m 46018,45426 153,9" style="fill:none;fill-opacity:0;stroke:red;stroke-opacity:1"/><path id="path716" d="m 46171,45435 431,12" style="fill:none;fill-opacity:0;stroke:red;stroke-opacity:1"/><path id="path718" d="m 46602,45447 656,11" style="fill:none;fill-opacity:0;stroke:red;stroke-opacity:1"/><path id="path720" d="m 47258,45458 2,247" style="fill:none;fill-opacity:0;stroke:red;stroke-opacity:1"/><path id="path722" d="m 47260,45705 7,453" style="fill:none;fill-opacity:0;stroke:red;stroke-opacity:1"/><path id="path724" d="m 47267,46158 11,363" style="fill:none;fill-opacity:0;stroke:red;stroke-opacity:1"/><path id="path726" d="m 47278,46521 14,259" style="fill:none;fill-opacity:0;stroke:red;stroke-opacity:1"/><path id="path728" d="m 47292,46780 18,145" style="fill:none;fill-opacity:0;stroke:red;stroke-opacity:1"/><path id="path730" d="m 47310,46925 25,89" style="fill:none;fill-opacity:0;stroke:red;stroke-opacity:1"/><path id="path732" d="m 47335,47014 31,88" style="fill:none;fill-opacity:0;stroke:red;stroke-opacity:1"/><path id="path734" d="m 47366,47102 37,86" style="fill:none;fill-opacity:0;stroke:red;stroke-opacity:1"/><path id="path736" d="m 47403,47188 44,85" style="fill:none;fill-opacity:0;stroke:red;stroke-opacity:1"/><path id="path738" d="m 47447,47273 49,83" style="fill:none;fill-opacity:0;stroke:red;stroke-opacity:1"/><path id="path740" d="m 47496,47356 56,81" style="fill:none;fill-opacity:0;stroke:red;stroke-opacity:1"/><path id="path742" d="m 47552,47437 127,154" style="fill:none;fill-opacity:0;stroke:red;stroke-opacity:1"/><path id="path744" d="m 47679,47591 150,144" style="fill:none;fill-opacity:0;stroke:red;stroke-opacity:1"/><path id="path746" d="m 47829,47735 170,132" style="fill:none;fill-opacity:0;stroke:red;stroke-opacity:1"/><path id="path748" d="m 47999,47867 189,120" style="fill:none;fill-opacity:0;stroke:red;stroke-opacity:1"/><path id="path750" d="m 48188,47987 207,105" style="fill:none;fill-opacity:0;stroke:red;stroke-opacity:1"/><path id="path752" d="m 48395,48092 147,61" style="fill:none;fill-opacity:0;stroke:red;stroke-opacity:1"/><path id="path754" d="m 48542,48153 164,59" style="fill:none;fill-opacity:0;stroke:red;stroke-opacity:1"/><path id="path756" d="m 48706,48212 179,56" style="fill:none;fill-opacity:0;stroke:red;stroke-opacity:1"/><path id="path758" d="m 48885,48268 190,52" style="fill:none;fill-opacity:0;stroke:red;stroke-opacity:1"/><path id="path760" d="m 49075,48320 195,47" style="fill:none;fill-opacity:0;stroke:red;stroke-opacity:1"/><path id="path762" d="m 49270,48367 197,42" style="fill:none;fill-opacity:0;stroke:red;stroke-opacity:1"/><path id="path764" d="m 49467,48409 196,34" style="fill:none;fill-opacity:0;stroke:red;stroke-opacity:1"/><path id="path766" d="m 49663,48443 189,25" style="fill:none;fill-opacity:0;stroke:red;stroke-opacity:1"/><path id="path768" d="m 49852,48468 v 0" style="fill:none;fill-opacity:0;stroke:red;stroke-opacity:1"/><path id="path770" d="m 49852,48468 243,20" style="fill:none;fill-opacity:0;stroke:red;stroke-opacity:1"/><path id="path772" d="m 50095,48488 258,4" style="fill:none;fill-opacity:0;stroke:red;stroke-opacity:1"/><path id="path774" d="m 50353,48492 268,-11" style="fill:none;fill-opacity:0;stroke:red;stroke-opacity:1"/><path id="path776" d="m 50621,48481 274,-24" style="fill:none;fill-opacity:0;stroke:red;stroke-opacity:1"/><path id="path778" d="m 50895,48457 276,-38" style="fill:none;fill-opacity:0;stroke:red;stroke-opacity:1"/><path id="path780" d="m 51171,48419 274,-52" style="fill:none;fill-opacity:0;stroke:red;stroke-opacity:1"/><path id="path782" d="m 51445,48367 267,-64" style="fill:none;fill-opacity:0;stroke:red;stroke-opacity:1"/><path id="path784" d="m 51712,48303 255,-76" style="fill:none;fill-opacity:0;stroke:red;stroke-opacity:1"/><path id="path786" d="m 51967,48227 148,-52" style="fill:none;fill-opacity:0;stroke:red;stroke-opacity:1"/><path id="path788" d="m 52115,48175 140,-56" style="fill:none;fill-opacity:0;stroke:red;stroke-opacity:1"/><path id="path790" d="m 52255,48119 133,-59" style="fill:none;fill-opacity:0;stroke:red;stroke-opacity:1"/><path id="path792" d="m 52388,48060 124,-63" style="fill:none;fill-opacity:0;stroke:red;stroke-opacity:1"/><path id="path794" d="m 52512,47997 117,-66" style="fill:none;fill-opacity:0;stroke:red;stroke-opacity:1"/><path id="path796" d="m 52629,47931 109,-70" style="fill:none;fill-opacity:0;stroke:red;stroke-opacity:1"/><path id="path798" d="m 52738,47861 101,-73" style="fill:none;fill-opacity:0;stroke:red;stroke-opacity:1"/><path id="path800" d="m 52839,47788 93,-77" style="fill:none;fill-opacity:0;stroke:red;stroke-opacity:1"/><path id="path802" d="m 52932,47711 85,-80" style="fill:none;fill-opacity:0;stroke:red;stroke-opacity:1"/><path id="path804" d="m 53017,47631 78,-85" style="fill:none;fill-opacity:0;stroke:red;stroke-opacity:1"/><path id="path806" d="m 53095,47546 70,-87" style="fill:none;fill-opacity:0;stroke:red;stroke-opacity:1"/><path id="path808" d="m 53165,47459 62,-92" style="fill:none;fill-opacity:0;stroke:red;stroke-opacity:1"/><path id="path810" d="m 53227,47367 54,-94" style="fill:none;fill-opacity:0;stroke:red;stroke-opacity:1"/><path id="path812" d="m 53281,47273 47,-99" style="fill:none;fill-opacity:0;stroke:red;stroke-opacity:1"/><path id="path814" d="m 53328,47174 39,-102" style="fill:none;fill-opacity:0;stroke:red;stroke-opacity:1"/><path id="path816" d="m 53367,47072 31,-106" style="fill:none;fill-opacity:0;stroke:red;stroke-opacity:1"/><path id="path818" d="m 53398,46966 22,-163" style="fill:none;fill-opacity:0;stroke:red;stroke-opacity:1"/><path id="path820" d="m 53420,46803 18,-284" style="fill:none;fill-opacity:0;stroke:red;stroke-opacity:1"/><path id="path822" d="m 53438,46519 13,-382" style="fill:none;fill-opacity:0;stroke:red;stroke-opacity:1"/><path id="path824" d="m 53451,46137 7,-457" style="fill:none;fill-opacity:0;stroke:red;stroke-opacity:1"/><path id="path826" d="m 53458,45680 1,-222" style="fill:none;fill-opacity:0;stroke:red;stroke-opacity:1"/><path id="path828" d="m 53459,45458 705,-12" style="fill:none;fill-opacity:0;stroke:red;stroke-opacity:1"/><path id="path830" d="m 54164,45446 375,-7" style="fill:none;fill-opacity:0;stroke:red;stroke-opacity:1"/><path id="path832" d="m 54539,45439 234,-10" style="fill:none;fill-opacity:0;stroke:red;stroke-opacity:1"/><path id="path834" d="m 54773,45429 142,-16" style="fill:none;fill-opacity:0;stroke:red;stroke-opacity:1"/><path id="path836" d="m 54915,45413 101,-26" style="fill:none;fill-opacity:0;stroke:red;stroke-opacity:1"/><path id="path838" d="m 55016,45387 163,-63" style="fill:none;fill-opacity:0;stroke:red;stroke-opacity:1"/><path id="path840" d="m 55179,45324 152,-78" style="fill:none;fill-opacity:0;stroke:red;stroke-opacity:1"/><path id="path842" d="m 55331,45246 139,-93" style="fill:none;fill-opacity:0;stroke:red;stroke-opacity:1"/><path id="path844" d="m 55470,45153 129,-111" style="fill:none;fill-opacity:0;stroke:red;stroke-opacity:1"/><path id="path846" d="m 55599,45042 119,-128" style="fill:none;fill-opacity:0;stroke:red;stroke-opacity:1"/><path id="path848" d="m 55718,44914 110,-145" style="fill:none;fill-opacity:0;stroke:red;stroke-opacity:1"/><path id="path850" d="m 55828,44769 101,-166" style="fill:none;fill-opacity:0;stroke:red;stroke-opacity:1"/><path id="path852" d="m 55929,44603 94,-184" style="fill:none;fill-opacity:0;stroke:red;stroke-opacity:1"/><path id="path854" d="m 56023,44419 102,-246" style="fill:none;fill-opacity:0;stroke:red;stroke-opacity:1"/><path id="path856" d="m 56125,44173 103,-296" style="fill:none;fill-opacity:0;stroke:red;stroke-opacity:1"/><path id="path858" d="m 56228,43877 93,-311" style="fill:none;fill-opacity:0;stroke:red;stroke-opacity:1"/><path id="path860" d="m 56321,43566 71,-290" style="fill:none;fill-opacity:0;stroke:red;stroke-opacity:1"/><path id="path862" d="m 56392,43276 36,-187" style="fill:none;fill-opacity:0;stroke:red;stroke-opacity:1"/><path id="path864" d="m 56428,43089 20,-163" style="fill:none;fill-opacity:0;stroke:red;stroke-opacity:1"/><path id="path866" d="m 56448,42926 8,-201" style="fill:none;fill-opacity:0;stroke:red;stroke-opacity:1"/><path id="path868" d="m 56456,42725 v -301" style="fill:none;fill-opacity:0;stroke:red;stroke-opacity:1"/><path id="path870" d="m 56456,42424 -12,-397" style="fill:none;fill-opacity:0;stroke:red;stroke-opacity:1"/><path id="path872" d="m 56444,42027 -11,-138" style="fill:none;fill-opacity:0;stroke:red;stroke-opacity:1"/><path id="path874" d="m 56433,41889 -10,-73" style="fill:none;fill-opacity:0;stroke:red;stroke-opacity:1"/><path id="path876" d="m 56423,41816 -43,-269" style="fill:none;fill-opacity:0;stroke:red;stroke-opacity:1"/><path id="path878" d="m 56380,41547 -46,-248" style="fill:none;fill-opacity:0;stroke:red;stroke-opacity:1"/><path id="path880" d="m 56334,41299 -48,-227" style="fill:none;fill-opacity:0;stroke:red;stroke-opacity:1"/><path id="path882" d="m 56286,41072 -51,-207" style="fill:none;fill-opacity:0;stroke:red;stroke-opacity:1"/><path id="path884" d="m 56235,40865 -54,-189" style="fill:none;fill-opacity:0;stroke:red;stroke-opacity:1"/><path id="path886" d="m 56181,40676 -56,-171" style="fill:none;fill-opacity:0;stroke:red;stroke-opacity:1"/><path id="path888" d="m 56125,40505 -58,-154" style="fill:none;fill-opacity:0;stroke:red;stroke-opacity:1"/><path id="path890" d="m 56067,40351 -59,-140" style="fill:none;fill-opacity:0;stroke:red;stroke-opacity:1"/><path id="path892" d="m 56008,40211 -62,-125" style="fill:none;fill-opacity:0;stroke:red;stroke-opacity:1"/><path id="path894" d="m 55946,40086 -63,-112" style="fill:none;fill-opacity:0;stroke:red;stroke-opacity:1"/><path id="path896" d="m 55883,39974 -64,-101" style="fill:none;fill-opacity:0;stroke:red;stroke-opacity:1"/><path id="path898" d="m 55819,39873 -66,-90" style="fill:none;fill-opacity:0;stroke:red;stroke-opacity:1"/><path id="path900" d="m 55753,39783 -67,-80" style="fill:none;fill-opacity:0;stroke:red;stroke-opacity:1"/><path id="path902" d="m 55686,39703 -67,-71" style="fill:none;fill-opacity:0;stroke:red;stroke-opacity:1"/><path id="path904" d="m 55619,39632 -138,-122" style="fill:none;fill-opacity:0;stroke:red;stroke-opacity:1"/><path id="path906" d="m 55481,39510 v 0" style="fill:none;fill-opacity:0;stroke:red;stroke-opacity:1"/><path id="path908" d="m 55481,39510 -119,-86" style="fill:none;fill-opacity:0;stroke:red;stroke-opacity:1"/><path id="path910" d="m 55362,39424 -111,-65" style="fill:none;fill-opacity:0;stroke:red;stroke-opacity:1"/><path id="path912" d="m 55251,39359 -103,-46" style="fill:none;fill-opacity:0;stroke:red;stroke-opacity:1"/><path id="path914" d="m 55148,39313 -99,-31" style="fill:none;fill-opacity:0;stroke:red;stroke-opacity:1"/><path id="path916" d="m 55049,39282 -96,-19" style="fill:none;fill-opacity:0;stroke:red;stroke-opacity:1"/><path id="path918" d="m 54953,39263 -95,-11" style="fill:none;fill-opacity:0;stroke:red;stroke-opacity:1"/><path id="path920" d="m 54858,39252 -198,-9" style="fill:none;fill-opacity:0;stroke:red;stroke-opacity:1"/><path id="path922" d="m 54660,39243 -1228,-7" style="fill:none;fill-opacity:0;stroke:red;stroke-opacity:1"/><path id="path924" d="m 53432,39236 -3,-1299" style="fill:none;fill-opacity:0;stroke:red;stroke-opacity:1"/><path id="path926" d="m 53429,37937 -6,-206" style="fill:none;fill-opacity:0;stroke:red;stroke-opacity:1"/><path id="path928" d="m 53423,37731 -14,-89" style="fill:none;fill-opacity:0;stroke:red;stroke-opacity:1"/><path id="path930" d="m 53409,37642 -20,-78" style="fill:none;fill-opacity:0;stroke:red;stroke-opacity:1"/><path id="path932" d="m 53389,37564 -25,-70" style="fill:none;fill-opacity:0;stroke:red;stroke-opacity:1"/><path id="path934" d="m 53364,37494 -28,-61" style="fill:none;fill-opacity:0;stroke:red;stroke-opacity:1"/><path id="path936" d="m 53336,37433 -64,-105" style="fill:none;fill-opacity:0;stroke:red;stroke-opacity:1"/><path id="path938" d="m 53272,37328 -64,-89" style="fill:none;fill-opacity:0;stroke:red;stroke-opacity:1"/><path id="path940" d="m 53208,37239 -60,-86" style="fill:none;fill-opacity:0;stroke:red;stroke-opacity:1"/><path id="path942" d="m 53148,37153 -72,-89" style="fill:none;fill-opacity:0;stroke:red;stroke-opacity:1"/><path id="path944" d="m 53076,37064 -88,-92" style="fill:none;fill-opacity:0;stroke:red;stroke-opacity:1"/><path id="path946" d="m 52988,36972 -109,-95" style="fill:none;fill-opacity:0;stroke:red;stroke-opacity:1"/><path id="path948" d="m 52879,36877 -133,-98" style="fill:none;fill-opacity:0;stroke:red;stroke-opacity:1"/><path id="path950" d="m 52746,36779 -161,-100" style="fill:none;fill-opacity:0;stroke:red;stroke-opacity:1"/><path id="path952" d="m 52585,36679 -193,-102" style="fill:none;fill-opacity:0;stroke:red;stroke-opacity:1"/><path id="path954" d="m 52392,36577 -229,-104" style="fill:none;fill-opacity:0;stroke:red;stroke-opacity:1"/><path id="path956" d="m 52163,36473 -137,-42" style="fill:none;fill-opacity:0;stroke:red;stroke-opacity:1"/><path id="path958" d="m 52026,36431 -176,-36" style="fill:none;fill-opacity:0;stroke:red;stroke-opacity:1"/><path id="path960" d="m 51850,36395 -211,-30" style="fill:none;fill-opacity:0;stroke:red;stroke-opacity:1"/><path id="path962" d="m 51639,36365 -240,-23" style="fill:none;fill-opacity:0;stroke:red;stroke-opacity:1"/><path id="path964" d="m 51399,36342 -264,-17" style="fill:none;fill-opacity:0;stroke:red;stroke-opacity:1"/><path id="path966" d="m 51135,36325 -284,-10" style="fill:none;fill-opacity:0;stroke:red;stroke-opacity:1"/><path id="path968" d="m 50851,36315 -297,-3" style="fill:none;fill-opacity:0;stroke:red;stroke-opacity:1"/><path id="path970" d="m 50554,36312 -307,4" style="fill:none;fill-opacity:0;stroke:red;stroke-opacity:1"/><path id="path972" d="m 50247,36316 -310,10" style="fill:none;fill-opacity:0;stroke:red;stroke-opacity:1"/><path id="path974" d="m 49937,36326 -309,18" style="fill:none;fill-opacity:0;stroke:red;stroke-opacity:1"/><path id="path976" d="m 49628,36344 -302,26" style="fill:none;fill-opacity:0;stroke:red;stroke-opacity:1"/><path id="path978" d="m 49326,36370 -290,33" style="fill:none;fill-opacity:0;stroke:red;stroke-opacity:1"/><path id="path980" d="m 49036,36403 -274,40" style="fill:none;fill-opacity:0;stroke:red;stroke-opacity:1"/><path id="path982" d="m 48762,36443 -252,48" style="fill:none;fill-opacity:0;stroke:red;stroke-opacity:1"/><path id="path984" d="m 48510,36491 -225,57" style="fill:none;fill-opacity:0;stroke:red;stroke-opacity:1"/><path id="path986" d="m 48285,36548 -193,64" style="fill:none;fill-opacity:0;stroke:red;stroke-opacity:1"/><path id="path988" d="m 48092,36612 -97,46" style="fill:none;fill-opacity:0;stroke:red;stroke-opacity:1"/><path id="path990" d="m 47995,36658 -89,48" style="fill:none;fill-opacity:0;stroke:red;stroke-opacity:1"/><path id="path992" d="m 47906,36706 -82,52" style="fill:none;fill-opacity:0;stroke:red;stroke-opacity:1"/><path id="path994" d="m 47824,36758 -74,54" style="fill:none;fill-opacity:0;stroke:red;stroke-opacity:1"/><path id="path996" d="m 47750,36812 -68,58" style="fill:none;fill-opacity:0;stroke:red;stroke-opacity:1"/><path id="path998" d="m 47682,36870 -62,60" style="fill:none;fill-opacity:0;stroke:red;stroke-opacity:1"/><path id="path1000" d="m 47620,36930 -55,62" style="fill:none;fill-opacity:0;stroke:red;stroke-opacity:1"/><path id="path1002" d="m 47565,36992 -50,65" style="fill:none;fill-opacity:0;stroke:red;stroke-opacity:1"/><path id="path1004" d="m 47515,37057 -83,137" style="fill:none;fill-opacity:0;stroke:red;stroke-opacity:1"/><path id="path1006" d="m 47432,37194 -64,146" style="fill:none;fill-opacity:0;stroke:red;stroke-opacity:1"/><path id="path1008" d="m 47368,37340 -47,154" style="fill:none;fill-opacity:0;stroke:red;stroke-opacity:1"/><path id="path1010" d="m 47321,37494 -32,163" style="fill:none;fill-opacity:0;stroke:red;stroke-opacity:1"/><path id="path1012" d="m 47289,37657 -20,169" style="fill:none;fill-opacity:0;stroke:red;stroke-opacity:1"/><path id="path1014" d="m 47269,37826 -10,176" style="fill:none;fill-opacity:0;stroke:red;stroke-opacity:1"/><path id="path1016" d="m 47259,38002 -1,368" style="fill:none;fill-opacity:0;stroke:red;stroke-opacity:1"/><path id="path1018" d="m 47258,38370 9,387" style="fill:none;fill-opacity:0;stroke:red;stroke-opacity:1"/><path id="path1020" d="m 47267,38757 -1,400" style="fill:none;fill-opacity:0;stroke:red;stroke-opacity:1"/><path id="path1022" d="m 47266,39157 v 0" style="fill:none;fill-opacity:0;stroke:red;stroke-opacity:1"/></g><g style="fill:none;fill-opacity:0;stroke:#ff0200;stroke-width:39.37009811;stroke-linecap:round;stroke-linejoin:round;stroke-opacity:1" id="g4753" transform="matrix(1.0035412,0,0,1.0031957,-52523.705,-26278.649)"><path id="path4257" d="m 61234,31589 -155,3" style="fill:none;stroke:#ff0200;stroke-opacity:1"/><path id="path4259" d="m 61079,31592 -151,12" style="fill:none;stroke:#ff0200;stroke-opacity:1"/><path id="path4261" d="m 60928,31604 -146,20" style="fill:none;stroke:#ff0200;stroke-opacity:1"/><path id="path4263" d="m 60782,31624 -141,27" style="fill:none;stroke:#ff0200;stroke-opacity:1"/><path id="path4265" d="m 60641,31651 -136,34" style="fill:none;stroke:#ff0200;stroke-opacity:1"/><path id="path4267" d="m 60505,31685 -130,42" style="fill:none;stroke:#ff0200;stroke-opacity:1"/><path id="path4269" d="m 60375,31727 -125,50" style="fill:none;stroke:#ff0200;stroke-opacity:1"/><path id="path4271" d="m 60250,31777 -119,56" style="fill:none;stroke:#ff0200;stroke-opacity:1"/><path id="path4273" d="m 60131,31833 -112,63" style="fill:none;stroke:#ff0200;stroke-opacity:1"/><path id="path4275" d="m 60019,31896 -107,71" style="fill:none;stroke:#ff0200;stroke-opacity:1"/><path id="path4277" d="m 59912,31967 -100,77" style="fill:none;stroke:#ff0200;stroke-opacity:1"/><path id="path4279" d="m 59812,32044 -93,84" style="fill:none;stroke:#ff0200;stroke-opacity:1"/><path id="path4281" d="m 59719,32128 -86,90" style="fill:none;stroke:#ff0200;stroke-opacity:1"/><path id="path4283" d="m 59633,32218 -79,97" style="fill:none;stroke:#ff0200;stroke-opacity:1"/><path id="path4285" d="m 59554,32315 -71,103" style="fill:none;stroke:#ff0200;stroke-opacity:1"/><path id="path4287" d="m 59483,32418 -64,109" style="fill:none;stroke:#ff0200;stroke-opacity:1"/><path id="path4289" d="m 59419,32527 -51,105" style="fill:none;stroke:#ff0200;stroke-opacity:1"/><path id="path4291" d="m 59368,32632 -42,106" style="fill:none;stroke:#ff0200;stroke-opacity:1"/><path id="path4293" d="m 59326,32738 -32,122" style="fill:none;stroke:#ff0200;stroke-opacity:1"/><path id="path4295" d="m 59294,32860 -25,151" style="fill:none;stroke:#ff0200;stroke-opacity:1"/><path id="path4297" d="m 59269,33011 -20,193" style="fill:none;stroke:#ff0200;stroke-opacity:1"/><path id="path4299" d="m 59249,33204 -16,249" style="fill:none;stroke:#ff0200;stroke-opacity:1"/><path id="path4301" d="m 59233,33453 -29,722" style="fill:none;stroke:#ff0200;stroke-opacity:1"/><path id="path4303" d="m 59204,34175 -20,517" style="fill:none;stroke:#ff0200;stroke-opacity:1"/><path id="path4305" d="m 59184,34692 -25,403" style="fill:none;stroke:#ff0200;stroke-opacity:1"/><path id="path4307" d="m 59159,35095 -18,168" style="fill:none;stroke:#ff0200;stroke-opacity:1"/><path id="path4309" d="m 59141,35263 -24,151" style="fill:none;stroke:#ff0200;stroke-opacity:1"/><path id="path4311" d="m 59117,35414 -29,137" style="fill:none;stroke:#ff0200;stroke-opacity:1"/><path id="path4313" d="m 59088,35551 -38,126" style="fill:none;stroke:#ff0200;stroke-opacity:1"/><path id="path4315" d="m 59050,35677 -46,120" style="fill:none;stroke:#ff0200;stroke-opacity:1"/><path id="path4317" d="m 59004,35797 -57,118" style="fill:none;stroke:#ff0200;stroke-opacity:1"/><path id="path4319" d="m 58947,35915 -68,117" style="fill:none;stroke:#ff0200;stroke-opacity:1"/><path id="path4321" d="m 58879,36032 -81,123" style="fill:none;stroke:#ff0200;stroke-opacity:1"/><path id="path4323" d="m 58798,36155 -204,272" style="fill:none;stroke:#ff0200;stroke-opacity:1"/><path id="path4325" d="m 58594,36427 -270,333" style="fill:none;stroke:#ff0200;stroke-opacity:1"/><path id="path4327" d="m 58324,36760 -159,200" style="fill:none;stroke:#ff0200;stroke-opacity:1"/><path id="path4329" d="m 58165,36960 -149,197" style="fill:none;stroke:#ff0200;stroke-opacity:1"/><path id="path4331" d="m 58016,37157 -140,195" style="fill:none;stroke:#ff0200;stroke-opacity:1"/><path id="path4333" d="m 57876,37352 -131,192" style="fill:none;stroke:#ff0200;stroke-opacity:1"/><path id="path4335" d="m 57745,37544 -120,190" style="fill:none;stroke:#ff0200;stroke-opacity:1"/><path id="path4337" d="m 57625,37734 -111,186" style="fill:none;stroke:#ff0200;stroke-opacity:1"/><path id="path4339" d="m 57514,37920 -100,184" style="fill:none;stroke:#ff0200;stroke-opacity:1"/><path id="path4341" d="m 57414,38104 -90,180" style="fill:none;stroke:#ff0200;stroke-opacity:1"/><path id="path4343" d="m 57324,38284 -81,176" style="fill:none;stroke:#ff0200;stroke-opacity:1"/><path id="path4345" d="m 57243,38460 -69,173" style="fill:none;stroke:#ff0200;stroke-opacity:1"/><path id="path4347" d="m 57174,38633 -60,169" style="fill:none;stroke:#ff0200;stroke-opacity:1"/><path id="path4349" d="m 57114,38802 -49,164" style="fill:none;stroke:#ff0200;stroke-opacity:1"/><path id="path4351" d="m 57065,38966 -38,160" style="fill:none;stroke:#ff0200;stroke-opacity:1"/><path id="path4353" d="m 57027,39126 -28,156" style="fill:none;stroke:#ff0200;stroke-opacity:1"/><path id="path4355" d="m 56999,39282 -16,151" style="fill:none;stroke:#ff0200;stroke-opacity:1"/><path id="path4357" d="m 56983,39433 -6,145" style="fill:none;stroke:#ff0200;stroke-opacity:1"/><path id="path4359" d="m 56977,39578 -5,88" style="fill:none;stroke:#ff0200;stroke-opacity:1"/><path id="path4361" d="m 56972,39666 -13,86" style="fill:none;stroke:#ff0200;stroke-opacity:1"/><path id="path4363" d="m 56959,39752 -21,86" style="fill:none;stroke:#ff0200;stroke-opacity:1"/><path id="path4365" d="m 56938,39838 -29,84" style="fill:none;stroke:#ff0200;stroke-opacity:1"/><path id="path4367" d="m 56909,39922 -35,83" style="fill:none;stroke:#ff0200;stroke-opacity:1"/><path id="path4369" d="m 56874,40005 -42,79" style="fill:none;stroke:#ff0200;stroke-opacity:1"/><path id="path4371" d="m 56832,40084 -49,76" style="fill:none;stroke:#ff0200;stroke-opacity:1"/><path id="path4373" d="m 56783,40160 -54,72" style="fill:none;stroke:#ff0200;stroke-opacity:1"/><path id="path4375" d="m 56729,40232 -60,68" style="fill:none;stroke:#ff0200;stroke-opacity:1"/><path id="path4377" d="m 56669,40300 -64,63" style="fill:none;stroke:#ff0200;stroke-opacity:1"/><path id="path4379" d="m 56605,40363 -69,58" style="fill:none;stroke:#ff0200;stroke-opacity:1"/><path id="path4381" d="m 56536,40421 -73,51" style="fill:none;stroke:#ff0200;stroke-opacity:1"/><path id="path4383" d="m 56463,40472 -76,45" style="fill:none;stroke:#ff0200;stroke-opacity:1"/><path id="path4385" d="m 56387,40517 -80,38" style="fill:none;stroke:#ff0200;stroke-opacity:1"/><path id="path4387" d="m 56307,40555 -82,30" style="fill:none;stroke:#ff0200;stroke-opacity:1"/><path id="path4389" d="m 56225,40585 -84,22" style="fill:none;stroke:#ff0200;stroke-opacity:1"/><path id="path4391" d="m 56141,40607 -94,34" style="fill:none;stroke:#ff0200;stroke-opacity:1"/><path id="path4393" d="m 56047,40641 -107,59" style="fill:none;stroke:#ff0200;stroke-opacity:1"/><path id="path4395" d="m 55940,40700 -106,77" style="fill:none;stroke:#ff0200;stroke-opacity:1"/><path id="path4397" d="m 55834,40777 -93,86" style="fill:none;stroke:#ff0200;stroke-opacity:1"/><path id="path4399" d="m 55741,40863 -60,68" style="fill:none;stroke:#ff0200;stroke-opacity:1"/><path id="path4401" d="m 55681,40931 -46,61" style="fill:none;stroke:#ff0200;stroke-opacity:1"/><path id="path4403" d="m 55635,40992 -33,59" style="fill:none;stroke:#ff0200;stroke-opacity:1"/><path id="path4405" d="m 55602,41051 -21,62" style="fill:none;stroke:#ff0200;stroke-opacity:1"/><path id="path4407" d="m 55581,41113 -11,73" style="fill:none;stroke:#ff0200;stroke-opacity:1"/><path id="path4409" d="m 55570,41186 -2,88" style="fill:none;stroke:#ff0200;stroke-opacity:1"/><path id="path4411" d="m 55568,41274 16,248" style="fill:none;stroke:#ff0200;stroke-opacity:1"/><path id="path4413" d="m 55584,41522 10,194" style="fill:none;stroke:#ff0200;stroke-opacity:1"/><path id="path4415" d="m 55594,41716 -5,201" style="fill:none;stroke:#ff0200;stroke-opacity:1"/><path id="path4417" d="m 55589,41917 -17,183" style="fill:none;stroke:#ff0200;stroke-opacity:1"/><path id="path4419" d="m 55572,42100 -28,143" style="fill:none;stroke:#ff0200;stroke-opacity:1"/><path id="path4421" d="m 55544,42243 -29,126" style="fill:none;stroke:#ff0200;stroke-opacity:1"/><path id="path4423" d="m 55515,42369 -14,118" style="fill:none;stroke:#ff0200;stroke-opacity:1"/><path id="path4425" d="m 55501,42487 2,109" style="fill:none;stroke:#ff0200;stroke-opacity:1"/><path id="path4427" d="m 55503,42596 17,100" style="fill:none;stroke:#ff0200;stroke-opacity:1"/><path id="path4429" d="m 55520,42696 33,89" style="fill:none;stroke:#ff0200;stroke-opacity:1"/><path id="path4431" d="m 55553,42785 48,80" style="fill:none;stroke:#ff0200;stroke-opacity:1"/><path id="path4433" d="m 55601,42865 64,68" style="fill:none;stroke:#ff0200;stroke-opacity:1"/><path id="path4435" d="m 55665,42933 78,58" style="fill:none;stroke:#ff0200;stroke-opacity:1"/><path id="path4437" d="m 55743,42991 51,23" style="fill:none;stroke:#ff0200;stroke-opacity:1"/><path id="path4439" d="m 55794,43014 74,26" style="fill:none;stroke:#ff0200;stroke-opacity:1"/><path id="path4441" d="m 55868,43040 207,55" style="fill:none;stroke:#ff0200;stroke-opacity:1"/><path id="path4443" d="m 56075,43095 261,53" style="fill:none;stroke:#ff0200;stroke-opacity:1"/><path id="path4445" d="m 56336,43148 286,46" style="fill:none;stroke:#ff0200;stroke-opacity:1"/><path id="path4447" d="m 56622,43194 307,51" style="fill:none;stroke:#ff0200;stroke-opacity:1"/><path id="path4449" d="m 56929,43245 312,69" style="fill:none;stroke:#ff0200;stroke-opacity:1"/><path id="path4451" d="m 57241,43314 283,76" style="fill:none;stroke:#ff0200;stroke-opacity:1"/><path id="path4453" d="m 57524,43390 219,77" style="fill:none;stroke:#ff0200;stroke-opacity:1"/><path id="path4455" d="m 57743,43467 151,58" style="fill:none;stroke:#ff0200;stroke-opacity:1"/><path id="path4457" d="m 57894,43525 151,49" style="fill:none;stroke:#ff0200;stroke-opacity:1"/><path id="path4459" d="m 58045,43574 150,40" style="fill:none;stroke:#ff0200;stroke-opacity:1"/><path id="path4461" d="m 58195,43614 148,31" style="fill:none;stroke:#ff0200;stroke-opacity:1"/><path id="path4463" d="m 58343,43645 146,22" style="fill:none;stroke:#ff0200;stroke-opacity:1"/><path id="path4465" d="m 58489,43667 143,13" style="fill:none;stroke:#ff0200;stroke-opacity:1"/><path id="path4467" d="m 58632,43680 138,4" style="fill:none;stroke:#ff0200;stroke-opacity:1"/><path id="path4469" d="m 58770,43684 133,-5" style="fill:none;stroke:#ff0200;stroke-opacity:1"/><path id="path4471" d="m 58903,43679 127,-14" style="fill:none;stroke:#ff0200;stroke-opacity:1"/><path id="path4473" d="m 59030,43665 121,-22" style="fill:none;stroke:#ff0200;stroke-opacity:1"/><path id="path4475" d="m 59151,43643 113,-31" style="fill:none;stroke:#ff0200;stroke-opacity:1"/><path id="path4477" d="m 59264,43612 104,-40" style="fill:none;stroke:#ff0200;stroke-opacity:1"/><path id="path4479" d="m 59368,43572 95,-48" style="fill:none;stroke:#ff0200;stroke-opacity:1"/><path id="path4481" d="m 59463,43524 85,-57" style="fill:none;stroke:#ff0200;stroke-opacity:1"/><path id="path4483" d="m 59548,43467 74,-65" style="fill:none;stroke:#ff0200;stroke-opacity:1"/><path id="path4485" d="m 59622,43402 62,-74" style="fill:none;stroke:#ff0200;stroke-opacity:1"/><path id="path4487" d="m 59684,43328 40,-40" style="fill:none;stroke:#ff0200;stroke-opacity:1"/><path id="path4489" d="m 59724,43288 59,-38" style="fill:none;stroke:#ff0200;stroke-opacity:1"/><path id="path4491" d="m 59783,43250 76,-36" style="fill:none;stroke:#ff0200;stroke-opacity:1"/><path id="path4493" d="m 59859,43214 92,-32" style="fill:none;stroke:#ff0200;stroke-opacity:1"/><path id="path4495" d="m 59951,43182 107,-29" style="fill:none;stroke:#ff0200;stroke-opacity:1"/><path id="path4497" d="m 60058,43153 120,-26" style="fill:none;stroke:#ff0200;stroke-opacity:1"/><path id="path4499" d="m 60178,43127 273,-41" style="fill:none;stroke:#ff0200;stroke-opacity:1"/><path id="path4501" d="m 60451,43086 308,-25" style="fill:none;stroke:#ff0200;stroke-opacity:1"/><path id="path4503" d="m 60759,43061 331,-9" style="fill:none;stroke:#ff0200;stroke-opacity:1"/><path id="path4505" d="m 61090,43052 343,9" style="fill:none;stroke:#ff0200;stroke-opacity:1"/><path id="path4507" d="m 61433,43061 343,28" style="fill:none;stroke:#ff0200;stroke-opacity:1"/><path id="path4509" d="m 61776,43089 261,34" style="fill:none;stroke:#ff0200;stroke-opacity:1"/><path id="path4511" d="m 62037,43123 218,37" style="fill:none;stroke:#ff0200;stroke-opacity:1"/><path id="path4513" d="m 62255,43160 151,36" style="fill:none;stroke:#ff0200;stroke-opacity:1"/><path id="path4515" d="m 62406,43196 43,16" style="fill:none;stroke:#ff0200;stroke-opacity:1"/><path id="path4517" d="m 62449,43212 18,14" style="fill:none;stroke:#ff0200;stroke-opacity:1"/><path id="path4519" d="m 62467,43226 34,65" style="fill:none;stroke:#ff0200;stroke-opacity:1"/><path id="path4521" d="m 62501,43291 52,72" style="fill:none;stroke:#ff0200;stroke-opacity:1"/><path id="path4523" d="m 62553,43363 67,76" style="fill:none;stroke:#ff0200;stroke-opacity:1"/><path id="path4525" d="m 62620,43439 77,75" style="fill:none;stroke:#ff0200;stroke-opacity:1"/><path id="path4527" d="m 62697,43514 83,71" style="fill:none;stroke:#ff0200;stroke-opacity:1"/><path id="path4529" d="m 62780,43585 86,64" style="fill:none;stroke:#ff0200;stroke-opacity:1"/><path id="path4531" d="m 62866,43649 86,53" style="fill:none;stroke:#ff0200;stroke-opacity:1"/><path id="path4533" d="m 62952,43702 81,39" style="fill:none;stroke:#ff0200;stroke-opacity:1"/><path id="path4535" d="m 63033,43741 102,36" style="fill:none;stroke:#ff0200;stroke-opacity:1"/><path id="path4537" d="m 63135,43777 103,28" style="fill:none;stroke:#ff0200;stroke-opacity:1"/><path id="path4539" d="m 63238,43805 104,18" style="fill:none;stroke:#ff0200;stroke-opacity:1"/><path id="path4541" d="m 63342,43823 104,9" style="fill:none;stroke:#ff0200;stroke-opacity:1"/><path id="path4543" d="m 63446,43832 h 106" style="fill:none;stroke:#ff0200;stroke-opacity:1"/><path id="path4545" d="m 63552,43832 106,-9" style="fill:none;stroke:#ff0200;stroke-opacity:1"/><path id="path4547" d="m 63658,43823 107,-17" style="fill:none;stroke:#ff0200;stroke-opacity:1"/><path id="path4549" d="m 63765,43806 109,-28" style="fill:none;stroke:#ff0200;stroke-opacity:1"/><path id="path4551" d="m 63874,43778 110,-36" style="fill:none;stroke:#ff0200;stroke-opacity:1"/><path id="path4553" d="m 63984,43742 111,-45" style="fill:none;stroke:#ff0200;stroke-opacity:1"/><path id="path4555" d="m 64095,43697 112,-54" style="fill:none;stroke:#ff0200;stroke-opacity:1"/><path id="path4557" d="m 64207,43643 114,-64" style="fill:none;stroke:#ff0200;stroke-opacity:1"/><path id="path4559" d="m 64321,43579 115,-73" style="fill:none;stroke:#ff0200;stroke-opacity:1"/><path id="path4561" d="m 64436,43506 117,-82" style="fill:none;stroke:#ff0200;stroke-opacity:1"/><path id="path4563" d="m 64553,43424 118,-91" style="fill:none;stroke:#ff0200;stroke-opacity:1"/><path id="path4565" d="m 64671,43333 120,-101" style="fill:none;stroke:#ff0200;stroke-opacity:1"/><path id="path4567" d="m 64791,43232 204,-159" style="fill:none;stroke:#ff0200;stroke-opacity:1"/><path id="path4569" d="m 64995,43073 255,-174" style="fill:none;stroke:#ff0200;stroke-opacity:1"/><path id="path4571" d="m 65250,42899 273,-167" style="fill:none;stroke:#ff0200;stroke-opacity:1"/><path id="path4573" d="m 65523,42732 260,-139" style="fill:none;stroke:#ff0200;stroke-opacity:1"/><path id="path4575" d="m 65783,42593 290,-150" style="fill:none;stroke:#ff0200;stroke-opacity:1"/><path id="path4577" d="m 66073,42443 119,-70" style="fill:none;stroke:#ff0200;stroke-opacity:1"/><path id="path4579" d="m 66192,42373 101,-68" style="fill:none;stroke:#ff0200;stroke-opacity:1"/><path id="path4581" d="m 66293,42305 84,-65" style="fill:none;stroke:#ff0200;stroke-opacity:1"/><path id="path4583" d="m 66377,42240 67,-66" style="fill:none;stroke:#ff0200;stroke-opacity:1"/><path id="path4585" d="m 66444,42174 51,-65" style="fill:none;stroke:#ff0200;stroke-opacity:1"/><path id="path4587" d="m 66495,42109 35,-67" style="fill:none;stroke:#ff0200;stroke-opacity:1"/><path id="path4589" d="m 66530,42042 19,-68" style="fill:none;stroke:#ff0200;stroke-opacity:1"/><path id="path4591" d="m 66549,41974 4,-72" style="fill:none;stroke:#ff0200;stroke-opacity:1"/><path id="path4593" d="m 66553,41902 -11,-75" style="fill:none;stroke:#ff0200;stroke-opacity:1"/><path id="path4595" d="m 66542,41827 -25,-81" style="fill:none;stroke:#ff0200;stroke-opacity:1"/><path id="path4597" d="m 66517,41746 -40,-86" style="fill:none;stroke:#ff0200;stroke-opacity:1"/><path id="path4599" d="m 66477,41660 -53,-92" style="fill:none;stroke:#ff0200;stroke-opacity:1"/><path id="path4601" d="m 66424,41568 -67,-100" style="fill:none;stroke:#ff0200;stroke-opacity:1"/><path id="path4603" d="m 66357,41468 -80,-109" style="fill:none;stroke:#ff0200;stroke-opacity:1"/><path id="path4605" d="m 66277,41359 -92,-138" style="fill:none;stroke:#ff0200;stroke-opacity:1"/><path id="path4607" d="m 66185,41221 -93,-172" style="fill:none;stroke:#ff0200;stroke-opacity:1"/><path id="path4609" d="m 66092,41049 -83,-183" style="fill:none;stroke:#ff0200;stroke-opacity:1"/><path id="path4611" d="m 66009,40866 -63,-172" style="fill:none;stroke:#ff0200;stroke-opacity:1"/><path id="path4613" d="m 65946,40694 -57,-158" style="fill:none;stroke:#ff0200;stroke-opacity:1"/><path id="path4615" d="m 65889,40536 -65,-142" style="fill:none;stroke:#ff0200;stroke-opacity:1"/><path id="path4617" d="m 65824,40394 -67,-112" style="fill:none;stroke:#ff0200;stroke-opacity:1"/><path id="path4619" d="m 65757,40282 -31,-39" style="fill:none;stroke:#ff0200;stroke-opacity:1"/><path id="path4621" d="m 65726,40243 -29,-26" style="fill:none;stroke:#ff0200;stroke-opacity:1"/><path id="path4623" d="m 65697,40217 -37,-31" style="fill:none;stroke:#ff0200;stroke-opacity:1"/><path id="path4625" d="m 65660,40186 -29,-42" style="fill:none;stroke:#ff0200;stroke-opacity:1"/><path id="path4627" d="m 65631,40144 -23,-57" style="fill:none;stroke:#ff0200;stroke-opacity:1"/><path id="path4629" d="m 65608,40087 -17,-79" style="fill:none;stroke:#ff0200;stroke-opacity:1"/><path id="path4631" d="m 65591,40008 -11,-104" style="fill:none;stroke:#ff0200;stroke-opacity:1"/><path id="path4633" d="m 65580,39904 -7,-136" style="fill:none;stroke:#ff0200;stroke-opacity:1"/><path id="path4635" d="m 65573,39768 -5,-388" style="fill:none;stroke:#ff0200;stroke-opacity:1"/><path id="path4637" d="m 65568,39380 -6,-408" style="fill:none;stroke:#ff0200;stroke-opacity:1"/><path id="path4639" d="m 65562,38972 -11,-153" style="fill:none;stroke:#ff0200;stroke-opacity:1"/><path id="path4641" d="m 65551,38819 -16,-132" style="fill:none;stroke:#ff0200;stroke-opacity:1"/><path id="path4643" d="m 65535,38687 -25,-119" style="fill:none;stroke:#ff0200;stroke-opacity:1"/><path id="path4645" d="m 65510,38568 -35,-114" style="fill:none;stroke:#ff0200;stroke-opacity:1"/><path id="path4647" d="m 65475,38454 -46,-118" style="fill:none;stroke:#ff0200;stroke-opacity:1"/><path id="path4649" d="m 65429,38336 -58,-131" style="fill:none;stroke:#ff0200;stroke-opacity:1"/><path id="path4651" d="m 65371,38205 -103,-214" style="fill:none;stroke:#ff0200;stroke-opacity:1"/><path id="path4653" d="m 65268,37991 -110,-206" style="fill:none;stroke:#ff0200;stroke-opacity:1"/><path id="path4655" d="m 65158,37785 -121,-204" style="fill:none;stroke:#ff0200;stroke-opacity:1"/><path id="path4657" d="m 65037,37581 -135,-206" style="fill:none;stroke:#ff0200;stroke-opacity:1"/><path id="path4659" d="m 64902,37375 -150,-211" style="fill:none;stroke:#ff0200;stroke-opacity:1"/><path id="path4661" d="m 64752,37164 -170,-223" style="fill:none;stroke:#ff0200;stroke-opacity:1"/><path id="path4663" d="m 64582,36941 -193,-237" style="fill:none;stroke:#ff0200;stroke-opacity:1"/><path id="path4665" d="m 64389,36704 -218,-257" style="fill:none;stroke:#ff0200;stroke-opacity:1"/><path id="path4667" d="m 64171,36447 -253,-299" style="fill:none;stroke:#ff0200;stroke-opacity:1"/><path id="path4669" d="m 63918,36148 -196,-252" style="fill:none;stroke:#ff0200;stroke-opacity:1"/><path id="path4671" d="m 63722,35896 -79,-114" style="fill:none;stroke:#ff0200;stroke-opacity:1"/><path id="path4673" d="m 63643,35782 -67,-111" style="fill:none;stroke:#ff0200;stroke-opacity:1"/><path id="path4675" d="m 63576,35671 -58,-109" style="fill:none;stroke:#ff0200;stroke-opacity:1"/><path id="path4677" d="m 63518,35562 -48,-111" style="fill:none;stroke:#ff0200;stroke-opacity:1"/><path id="path4679" d="m 63470,35451 -39,-116" style="fill:none;stroke:#ff0200;stroke-opacity:1"/><path id="path4681" d="m 63431,35335 -33,-122" style="fill:none;stroke:#ff0200;stroke-opacity:1"/><path id="path4683" d="m 63398,35213 -27,-133" style="fill:none;stroke:#ff0200;stroke-opacity:1"/><path id="path4685" d="m 63371,35080 -21,-145" style="fill:none;stroke:#ff0200;stroke-opacity:1"/><path id="path4687" d="m 63350,34935 -33,-339" style="fill:none;stroke:#ff0200;stroke-opacity:1"/><path id="path4689" d="m 63317,34596 -26,-421" style="fill:none;stroke:#ff0200;stroke-opacity:1"/><path id="path4691" d="m 63291,34175 -27,-426" style="fill:none;stroke:#ff0200;stroke-opacity:1"/><path id="path4693" d="m 63264,33749 -32,-380" style="fill:none;stroke:#ff0200;stroke-opacity:1"/><path id="path4695" d="m 63232,33369 -34,-292" style="fill:none;stroke:#ff0200;stroke-opacity:1"/><path id="path4697" d="m 63198,33077 -17,-100" style="fill:none;stroke:#ff0200;stroke-opacity:1"/><path id="path4699" d="m 63181,32977 -15,-63" style="fill:none;stroke:#ff0200;stroke-opacity:1"/><path id="path4701" d="m 63166,32914 -61,-164" style="fill:none;stroke:#ff0200;stroke-opacity:1"/><path id="path4703" d="m 63105,32750 -69,-152" style="fill:none;stroke:#ff0200;stroke-opacity:1"/><path id="path4705" d="m 63036,32598 -76,-141" style="fill:none;stroke:#ff0200;stroke-opacity:1"/><path id="path4707" d="m 62960,32457 -83,-131" style="fill:none;stroke:#ff0200;stroke-opacity:1"/><path id="path4709" d="m 62877,32326 -92,-119" style="fill:none;stroke:#ff0200;stroke-opacity:1"/><path id="path4711" d="m 62785,32207 -99,-109" style="fill:none;stroke:#ff0200;stroke-opacity:1"/><path id="path4713" d="m 62686,32098 -107,-97" style="fill:none;stroke:#ff0200;stroke-opacity:1"/><path id="path4715" d="m 62579,32001 -116,-88" style="fill:none;stroke:#ff0200;stroke-opacity:1"/><path id="path4717" d="m 62463,31913 -124,-76" style="fill:none;stroke:#ff0200;stroke-opacity:1"/><path id="path4719" d="m 62339,31837 -132,-67" style="fill:none;stroke:#ff0200;stroke-opacity:1"/><path id="path4721" d="m 62207,31770 -140,-56" style="fill:none;stroke:#ff0200;stroke-opacity:1"/><path id="path4723" d="m 62067,31714 -149,-45" style="fill:none;stroke:#ff0200;stroke-opacity:1"/><path id="path4725" d="m 61918,31669 -158,-35" style="fill:none;stroke:#ff0200;stroke-opacity:1"/><path id="path4727" d="m 61760,31634 -166,-25" style="fill:none;stroke:#ff0200;stroke-opacity:1"/><path id="path4729" d="m 61594,31609 -176,-15" style="fill:none;stroke:#ff0200;stroke-opacity:1"/><path id="path4731" d="m 61418,31594 -184,-5" style="fill:none;stroke:#ff0200;stroke-opacity:1"/><path id="path4733" d="m 61234,31589 v 0" style="fill:none;stroke:#ff0200;stroke-opacity:1"/><path id="path4735" d="m 61234,31589 v 0" style="fill:none;stroke:#ff0200;stroke-opacity:1"/></g><text style="font-style:normal;font-variant:normal;font-weight:400;font-stretch:normal;font-size:2534.53295898px;line-height:1.25;font-family:sans-serif;-inkscape-font-specification:'sans-serif, Normal';font-variant-ligatures:normal;font-variant-caps:normal;font-variant-numeric:normal;font-feature-settings:normal;text-align:start;letter-spacing:0;word-spacing:0;writing-mode:lr-tb;text-anchor:start;fill:#000;fill-opacity:1;stroke:none;stroke-width:237.61244202" id="text6324" x="9596.106" y="2813.908" transform="scale(0.70273984,1.4230017)" xml:space="preserve"><tspan id="tspan6322" x="9596.106" y="2813.908" style="stroke-width:237.61244202">Thank you for your order!</tspan></text><flowRoot id="flowRoot6326" transform="matrix(104.16675,0,0,104.16675,4499.1091,-91.820229)" xml:space="preserve" style="font-style:normal;font-variant:normal;font-weight:400;font-stretch:normal;font-size:10.66666698px;line-height:1.25;font-family:sans-serif;-inkscape-font-specification:'sans-serif, Normal';font-variant-ligatures:normal;font-variant-caps:normal;font-variant-numeric:normal;font-feature-settings:normal;text-align:start;letter-spacing:0;word-spacing:0;writing-mode:lr-tb;text-anchor:start;fill:#000;fill-opacity:1;stroke:none"><flowRegion id="flowRegion6328"><rect id="rect6330" width="154.112" height="30.004" x="81.148" y="185.461"/></flowRegion><flowPara id="flowPara6332">@RMA_Electronics</flowPara></flowRoot><rect style="fill:none;fill-opacity:0;stroke:red;stroke-width:96.45677185;stroke-miterlimit:4;stroke-dasharray:none;stroke-opacity:1" id="rect6334" width="35161.16" height="23653.873" x="48.228" y="48.228"/></svg>